<?xml version="1.0" encoding="utf-8"?>
<!-- Generator: Adobe Illustrator 24.0.0, SVG Export Plug-In . SVG Version: 6.00 Build 0)  -->
<svg version="1.1" id="Layer_1" xmlns="http://www.w3.org/2000/svg" xmlns:xlink="http://www.w3.org/1999/xlink" x="0px" y="0px"
	 viewBox="0 0 373.8 3" style="enable-background:new 0 0 373.8 3;" xml:space="preserve">
<style type="text/css">
</style>
<g>
	<rect class="st0" width="3" height="3"/>
	<rect x="5" class="st0" width="3" height="3"/>
	<rect x="10" class="st0" width="3" height="3"/>
	<rect x="15" class="st0" width="3" height="3"/>
	<rect x="20" class="st0" width="3" height="3"/>
	<rect x="25.1" class="st0" width="3" height="3"/>
	<rect x="30.1" class="st0" width="3" height="3"/>
	<rect x="35.1" class="st0" width="3" height="3"/>
	<rect x="40.1" class="st0" width="3" height="3"/>
	<rect x="45.1" class="st0" width="3" height="3"/>
	<rect x="50.1" class="st0" width="3" height="3"/>
	<rect x="55.1" class="st0" width="3" height="3"/>
	<rect x="60.1" class="st0" width="3" height="3"/>
	<rect x="65.1" class="st0" width="3" height="3"/>
	<rect x="70.2" class="st0" width="3" height="3"/>
	<rect x="75.2" class="st0" width="3" height="3"/>
	<rect x="80.2" class="st0" width="3" height="3"/>
	<rect x="85.2" class="st0" width="3" height="3"/>
	<rect x="90.2" class="st0" width="3" height="3"/>
	<rect x="95.2" class="st0" width="3" height="3"/>
	<rect x="100.2" class="st0" width="3" height="3"/>
	<rect x="105.2" class="st0" width="3" height="3"/>
	<rect x="110.2" class="st0" width="3" height="3"/>
	<rect x="115.2" class="st0" width="3" height="3"/>
	<rect x="120.2" class="st0" width="3" height="3"/>
	<rect x="125.3" class="st0" width="3" height="3"/>
	<rect x="130.3" class="st0" width="3" height="3"/>
	<rect x="135.3" class="st0" width="3" height="3"/>
	<rect x="140.3" class="st0" width="3" height="3"/>
	<rect x="145.3" class="st0" width="3" height="3"/>
	<rect x="150.3" class="st0" width="3" height="3"/>
	<rect x="155.3" class="st0" width="3" height="3"/>
	<rect x="160.3" class="st0" width="3" height="3"/>
	<rect x="165.4" class="st0" width="3" height="3"/>
	<rect x="170.4" class="st0" width="3" height="3"/>
	<rect x="175.4" class="st0" width="3" height="3"/>
	<rect x="180.4" class="st0" width="3" height="3"/>
	<rect x="185.4" class="st0" width="3" height="3"/>
	<rect x="190.4" class="st0" width="3" height="3"/>
	<rect x="195.4" class="st0" width="3" height="3"/>
	<rect x="200.4" class="st0" width="3" height="3"/>
	<rect x="205.4" class="st0" width="3" height="3"/>
	<rect x="210.5" class="st0" width="3" height="3"/>
	<rect x="215.5" class="st0" width="3" height="3"/>
	<rect x="220.5" class="st0" width="3" height="3"/>
	<rect x="225.5" class="st0" width="3" height="3"/>
	<rect x="230.5" class="st0" width="3" height="3"/>
	<rect x="235.5" class="st0" width="3" height="3"/>
	<rect x="240.5" class="st0" width="3" height="3"/>
	<rect x="245.5" class="st0" width="3" height="3"/>
	<rect x="250.5" class="st0" width="3" height="3"/>
	<rect x="255.5" class="st0" width="3" height="3"/>
	<rect x="260.6" class="st0" width="3" height="3"/>
	<rect x="265.6" class="st0" width="3" height="3"/>
	<rect x="270.6" class="st0" width="3" height="3"/>
	<rect x="275.6" class="st0" width="3" height="3"/>
	<rect x="280.6" class="st0" width="3" height="3"/>
	<rect x="285.6" class="st0" width="3" height="3"/>
	<rect x="290.6" class="st0" width="3" height="3"/>
	<rect x="295.6" class="st0" width="3" height="3"/>
	<rect x="300.6" class="st0" width="3" height="3"/>
	<rect x="305.6" class="st0" width="3" height="3"/>
	<rect x="310.7" class="st0" width="3" height="3"/>
	<rect x="315.7" class="st0" width="3" height="3"/>
	<rect x="320.7" class="st0" width="3" height="3"/>
	<rect x="325.7" class="st0" width="3" height="3"/>
	<rect x="330.7" class="st0" width="3" height="3"/>
	<rect x="335.7" class="st0" width="3" height="3"/>
	<rect x="340.7" class="st0" width="3" height="3"/>
	<rect x="345.7" class="st0" width="3" height="3"/>
	<rect x="350.7" class="st0" width="3" height="3"/>
	<rect x="355.8" class="st0" width="3" height="3"/>
	<rect x="360.8" class="st0" width="3" height="3"/>
	<rect x="365.8" class="st0" width="3" height="3"/>
	<rect x="370.8" class="st0" width="3" height="3"/>
</g>
</svg>
