<svg width="18" height="18" viewBox="0 0 18 18" fill="none" xmlns="http://www.w3.org/2000/svg">
<g id="&#236;&#149;&#132;&#236;&#157;&#180;&#236;&#189;&#152;_&#235;&#166;&#172;&#236;&#138;&#164;&#237;&#140;&#133;">
<g id="Vector">
<path d="M14.7035 2.62963H12.2591V1H10.6295V2.62963H7.37021V1H5.74058V2.62963H3.29613C2.39739 2.62963 1.6665 3.36052 1.6665 4.25926V15.6667C1.6665 16.5654 2.39739 17.2963 3.29613 17.2963H14.7035C15.6023 17.2963 16.3332 16.5654 16.3332 15.6667V4.25926C16.3332 3.36052 15.6023 2.62963 14.7035 2.62963ZM3.29613 15.6667V5.07407H14.7035V4.25926L14.7052 15.6667H3.29613Z" fill="#363C60"/>
<path d="M4.92576 6.7037H13.0739V8.33333H4.92576V6.7037ZM4.92576 9.96296H8.99984V11.5926H4.92576V9.96296Z" fill="#363C60"/>
</g>
</g>
</svg>
