<svg width="18" height="18" viewBox="0 0 18 18" fill="none" xmlns="http://www.w3.org/2000/svg">
<g id="&#236;&#149;&#132;&#236;&#157;&#180;&#236;&#189;&#152;_&#236;&#138;&#164;&#237;&#133;&#140;&#236;&#157;&#180;&#237;&#130;&#185;">
<path id="Vector" d="M8.99984 16.8333C12.1475 16.8333 15.3332 15.7456 15.3332 13.6667V4.16667C15.3332 2.08775 12.1475 1 8.99984 1C5.85217 1 2.6665 2.08775 2.6665 4.16667V13.6667C2.6665 15.7456 5.85217 16.8333 8.99984 16.8333ZM8.99984 15.25C6.05325 15.25 4.24984 14.2248 4.24984 13.6667V12.6628C5.4698 13.3263 7.23996 13.6667 8.99984 13.6667C10.7597 13.6667 12.5299 13.3263 13.7498 12.6628V13.6667C13.7498 14.2248 11.9464 15.25 8.99984 15.25ZM8.99984 2.58333C11.9464 2.58333 13.7498 3.60854 13.7498 4.16667C13.7498 4.72479 11.9464 5.75 8.99984 5.75C6.05325 5.75 4.24984 4.72479 4.24984 4.16667C4.24984 3.60854 6.05325 2.58333 8.99984 2.58333ZM4.24984 6.3295C5.4698 6.99292 7.23996 7.33333 8.99984 7.33333C10.7597 7.33333 12.5299 6.99292 13.7498 6.3295V7.33333C13.7498 7.89146 11.9464 8.91667 8.99984 8.91667C6.05325 8.91667 4.24984 7.89146 4.24984 7.33333V6.3295ZM4.24984 9.49617C5.4698 10.1596 7.23996 10.5 8.99984 10.5C10.7597 10.5 12.5299 10.1596 13.7498 9.49617V10.5C13.7498 11.0581 11.9464 12.0833 8.99984 12.0833C6.05325 12.0833 4.24984 11.0581 4.24984 10.5V9.49617Z" fill="#363C60"/>
</g>
</svg>
