<svg width="18" height="18" viewBox="0 0 18 18" fill="none" xmlns="http://www.w3.org/2000/svg">
<g id="&#236;&#149;&#132;&#236;&#157;&#180;&#236;&#189;&#152;_&#236;&#132;&#184;&#236;&#157;&#188;&#236;&#166;&#136;">
<g id="Vector">
<path d="M16.1315 2.67607H0.333496V4.33902H2.24589L4.97312 11.8223C5.14467 12.3075 5.46209 12.7278 5.88187 13.0255C6.30165 13.3232 6.80324 13.4838 7.31788 13.4852H14.4686V11.8223H7.31788C7.147 11.8222 6.98029 11.7695 6.84044 11.6713C6.70059 11.5731 6.59439 11.4342 6.53629 11.2735L6.15381 10.1593H13.8699C14.2308 10.1588 14.5817 10.0409 14.8697 9.82342C15.1577 9.60594 15.3671 9.30067 15.4663 8.9537L16.963 3.73204C16.9968 3.62286 17.0077 3.50787 16.9951 3.39428C16.9824 3.28068 16.9465 3.17091 16.8896 3.07181C16.8326 2.97272 16.7558 2.88643 16.664 2.81834C16.5722 2.75025 16.4674 2.70182 16.356 2.67607C16.2817 2.66397 16.2058 2.66397 16.1315 2.67607ZM13.8449 8.49639H5.53021L4.01693 4.33902H15.0256L13.8449 8.49639Z" fill="#363C60"/>
<path d="M7.40103 16.8111C8.08984 16.8111 8.64824 16.2527 8.64824 15.5639C8.64824 14.8751 8.08984 14.3167 7.40103 14.3167C6.71221 14.3167 6.15381 14.8751 6.15381 15.5639C6.15381 16.2527 6.71221 16.8111 7.40103 16.8111Z" fill="#363C60"/>
<path d="M12.3899 16.8111C13.0787 16.8111 13.6371 16.2527 13.6371 15.5639C13.6371 14.8751 13.0787 14.3167 12.3899 14.3167C11.7011 14.3167 11.1427 14.8751 11.1427 15.5639C11.1427 16.2527 11.7011 16.8111 12.3899 16.8111Z" fill="#363C60"/>
</g>
</g>
</svg>
