<svg width="18" height="18" viewBox="0 0 18 18" fill="none" xmlns="http://www.w3.org/2000/svg">
<g id="&#236;&#149;&#132;&#236;&#157;&#180;&#236;&#189;&#152;_&#236;&#149;&#160;&#236;&#133;&#139;">
<g id="Vector">
<path d="M15.4 1.66675H2.6C2.17565 1.66675 1.76869 1.83532 1.46863 2.13538C1.16857 2.43544 1 2.8424 1 3.26675V4.86675C1.00169 5.14597 1.07641 5.41989 1.21676 5.66128C1.3571 5.90268 1.55818 6.10314 1.8 6.24275V14.4667C1.8 14.8911 1.96857 15.2981 2.26863 15.5981C2.56869 15.8982 2.97565 16.0667 3.4 16.0667H14.6C15.0243 16.0667 15.4313 15.8982 15.7314 15.5981C16.0314 15.2981 16.2 14.8911 16.2 14.4667V6.24275C16.4418 6.10314 16.6429 5.90268 16.7832 5.66128C16.9236 5.41989 16.9983 5.14597 17 4.86675V3.26675C17 2.8424 16.8314 2.43544 16.5314 2.13538C16.2313 1.83532 15.8243 1.66675 15.4 1.66675ZM2.6 3.26675H15.4V4.86675H2.6V3.26675ZM3.4 14.4667V6.46675H14.6V14.4667H3.4Z" />
<path d="M5.8 8.06675H12.2V9.66675H5.8V8.06675Z" />
</g>
</g>
</svg>
