<svg width="18" height="18" viewBox="0 0 18 18" fill="none" xmlns="http://www.w3.org/2000/svg">
<g id="&#236;&#149;&#132;&#236;&#157;&#180;&#236;&#189;&#152;_&#236;&#149;&#161;&#237;&#139;&#176;&#235;&#185;&#132;&#237;&#139;&#176;">
<path id="Vector" d="M14.7037 1.66675H3.29626C2.39751 1.66675 1.66663 2.39764 1.66663 3.29638V14.7038C1.66663 15.6025 2.39751 16.3334 3.29626 16.3334H9.81477C9.92179 16.3336 10.0278 16.3126 10.1267 16.2716C10.2255 16.2306 10.3153 16.1705 10.3908 16.0947L16.0946 10.391C16.1615 10.3215 16.2156 10.2407 16.2543 10.1522C16.2657 10.1278 16.2722 10.1025 16.2811 10.0765C16.3043 10.0083 16.3183 9.9373 16.3227 9.86541C16.3243 9.8483 16.3333 9.83201 16.3333 9.8149V3.29638C16.3333 2.39764 15.6024 1.66675 14.7037 1.66675ZM3.29626 3.29638H14.7037V9.00008H9.81477C9.59867 9.00008 9.39142 9.08593 9.23861 9.23873C9.08581 9.39154 8.99996 9.59879 8.99996 9.8149V14.7038H3.29626V3.29638ZM10.6296 13.5516V10.6297H13.5515L10.6296 13.5516Z"/>
</g>
</svg>
