<svg width="16" height="17" viewBox="0 0 16 17" fill="none" xmlns="http://www.w3.org/2000/svg">
<g id="&#236;&#149;&#132;&#236;&#157;&#180;&#236;&#189;&#152;_&#236;&#185;&#180;&#237;&#148;&#188;">
<path id="Vector" d="M13.2148 1.98145H6.69626C5.97727 1.98145 5.39256 2.56616 5.39256 3.28515V5.89256H2.78515C2.06616 5.89256 1.48145 6.47727 1.48145 7.19626V13.7148C1.48145 14.4338 2.06616 15.0185 2.78515 15.0185H9.30367C10.0227 15.0185 10.6074 14.4338 10.6074 13.7148V11.1074H13.2148C13.9338 11.1074 14.5185 10.5227 14.5185 9.80367V3.28515C14.5185 2.56616 13.9338 1.98145 13.2148 1.98145ZM2.78515 13.7148V7.19626H9.30367L9.30497 13.7148H2.78515ZM13.2148 9.80367H10.6074V7.19626C10.6074 6.47727 10.0227 5.89256 9.30367 5.89256H6.69626V3.28515H13.2148V9.80367Z" />
</g>
</svg>
