<svg width="30" height="31" viewBox="0 0 30 31" fill="none" xmlns="http://www.w3.org/2000/svg">
<g id="&#236;&#149;&#132;&#236;&#157;&#180;&#236;&#189;&#152;_&#234;&#178;&#140;&#236;&#158;&#132;&#237;&#140;&#168;&#235;&#147;&#156;2">
<path id="Vector" d="M20.5558 7.16675H9.44466C7.23452 7.16675 5.11491 8.04472 3.5521 9.60753C1.9893 11.1703 1.11133 13.2899 1.11133 15.5001C1.11133 17.7102 1.9893 19.8298 3.5521 21.3926C5.11491 22.9554 7.23452 23.8334 9.44466 23.8334H20.5558C22.7659 23.8334 24.8855 22.9554 26.4483 21.3926C28.0111 19.8298 28.8891 17.7102 28.8891 15.5001C28.8891 13.2899 28.0111 11.1703 26.4483 9.60753C24.8855 8.04472 22.7659 7.16675 20.5558 7.16675ZM13.6113 16.889H10.8336V19.6668H8.05577V16.889H5.278V14.1112H8.05577V11.3334H10.8336V14.1112H13.6113V16.889ZM18.4724 19.6668C17.9199 19.6668 17.39 19.4473 16.9993 19.0566C16.6086 18.6659 16.3891 18.136 16.3891 17.5834C16.3891 17.0309 16.6086 16.501 16.9993 16.1103C17.39 15.7196 17.9199 15.5001 18.4724 15.5001C19.025 15.5001 19.5549 15.7196 19.9456 16.1103C20.3363 16.501 20.5558 17.0309 20.5558 17.5834C20.5558 18.136 20.3363 18.6659 19.9456 19.0566C19.5549 19.4473 19.025 19.6668 18.4724 19.6668ZM22.6391 15.5001C22.0866 15.5001 21.5567 15.2806 21.166 14.8899C20.7753 14.4992 20.5558 13.9693 20.5558 13.4167C20.5558 12.8642 20.7753 12.3343 21.166 11.9436C21.5567 11.5529 22.0866 11.3334 22.6391 11.3334C23.1916 11.3334 23.7215 11.5529 24.1122 11.9436C24.5029 12.3343 24.7224 12.8642 24.7224 13.4167C24.7224 13.9693 24.5029 14.4992 24.1122 14.8899C23.7215 15.2806 23.1916 15.5001 22.6391 15.5001Z" fill="#363C60"/>
</g>
</svg>
