<svg width="34" height="35" viewBox="0 0 34 35" fill="none" xmlns="http://www.w3.org/2000/svg">
<g id="&#236;&#149;&#132;&#236;&#157;&#180;&#236;&#189;&#152;_&#236;&#186;&#152;&#235;&#166;&#176;&#235;&#141;&#148;">
<g id="Vector">
<path d="M27.6534 4.90743H26.4445V3.33335C26.4445 2.91588 26.2786 2.51551 25.9834 2.22031C25.6882 1.92512 25.2879 1.75928 24.8704 1.75928C24.4529 1.75928 24.0525 1.92512 23.7574 2.22031C23.4622 2.51551 23.2963 2.91588 23.2963 3.33335V4.90743H10.7037V3.33335C10.7037 2.91588 10.5379 2.51551 10.2427 2.22031C9.94749 1.92512 9.54712 1.75928 9.12965 1.75928C8.71218 1.75928 8.31181 1.92512 8.01661 2.22031C7.72141 2.51551 7.55557 2.91588 7.55557 3.33335V4.90743H6.34668C4.99742 4.90743 3.70342 5.44342 2.74934 6.39749C1.79527 7.35157 1.25928 8.64557 1.25928 9.99483V28.1534C1.25928 29.5026 1.79527 30.7966 2.74934 31.7507C3.70342 32.7048 4.99742 33.2408 6.34668 33.2408H27.6534C29.0026 33.2408 30.2966 32.7048 31.2507 31.7507C32.2048 30.7966 32.7408 29.5026 32.7408 28.1534V9.99483C32.7408 8.64557 32.2048 7.35157 31.2507 6.39749C30.2966 5.44342 29.0026 4.90743 27.6534 4.90743ZM29.5926 28.1534C29.5926 28.6677 29.3883 29.1609 29.0246 29.5246C28.6609 29.8883 28.1677 30.0926 27.6534 30.0926H6.34668C5.83236 30.0926 5.3391 29.8883 4.97542 29.5246C4.61174 29.1609 4.40743 28.6677 4.40743 28.1534V9.99483C4.40743 9.48051 4.61174 8.98725 4.97542 8.62357C5.3391 8.25989 5.83236 8.05557 6.34668 8.05557H7.55557V9.62965C7.55557 10.0471 7.72141 10.4475 8.01661 10.7427C8.31181 11.0379 8.71218 11.2037 9.12965 11.2037C9.54712 11.2037 9.94749 11.0379 10.2427 10.7427C10.5379 10.4475 10.7037 10.0471 10.7037 9.62965V8.05557H23.2963V9.62965C23.2963 10.0471 23.4622 10.4475 23.7574 10.7427C24.0525 11.0379 24.4529 11.2037 24.8704 11.2037C25.2879 11.2037 25.6882 11.0379 25.9834 10.7427C26.2786 10.4475 26.4445 10.0471 26.4445 9.62965V8.05557H27.6534C28.1677 8.05557 28.6609 8.25989 29.0246 8.62357C29.3883 8.98725 29.5926 9.48051 29.5926 9.99483V28.1534Z" />
<path d="M17 19.3889C17.8694 19.3889 18.5741 18.6842 18.5741 17.8148C18.5741 16.9455 17.8694 16.2408 17 16.2408C16.1307 16.2408 15.4259 16.9455 15.4259 17.8148C15.4259 18.6842 16.1307 19.3889 17 19.3889Z" />
<path d="M17 25.0556C17.8694 25.0556 18.5741 24.3508 18.5741 23.4815C18.5741 22.6122 17.8694 21.9074 17 21.9074C16.1307 21.9074 15.4259 22.6122 15.4259 23.4815C15.4259 24.3508 16.1307 25.0556 17 25.0556Z" />
<path d="M11.3334 25.0556C12.2027 25.0556 12.9074 24.3508 12.9074 23.4815C12.9074 22.6122 12.2027 21.9074 11.3334 21.9074C10.464 21.9074 9.75928 22.6122 9.75928 23.4815C9.75928 24.3508 10.464 25.0556 11.3334 25.0556Z" />
<path d="M22.6667 19.3889C23.536 19.3889 24.2408 18.6842 24.2408 17.8148C24.2408 16.9455 23.536 16.2408 22.6667 16.2408C21.7973 16.2408 21.0926 16.9455 21.0926 17.8148C21.0926 18.6842 21.7973 19.3889 22.6667 19.3889Z" />
<path d="M22.6667 25.0556C23.536 25.0556 24.2408 24.3508 24.2408 23.4815C24.2408 22.6122 23.536 21.9074 22.6667 21.9074C21.7973 21.9074 21.0926 22.6122 21.0926 23.4815C21.0926 24.3508 21.7973 25.0556 22.6667 25.0556Z" />
</g>
</g>
</svg>
