<svg width="30" height="31" viewBox="0 0 30 31" fill="none" xmlns="http://www.w3.org/2000/svg">
<g id="&#236;&#149;&#132;&#236;&#157;&#180;&#236;&#189;&#152;_&#236;&#151;&#144;&#235;&#148;&#167;">
<g id="Vector">
<path d="M8.02595 22.3475L13.8159 22.3279L26.4534 9.81109C26.9494 9.31515 27.2223 8.65651 27.2223 7.95588C27.2223 7.25526 26.9494 6.59662 26.4534 6.10067L24.3725 4.01979C23.3806 3.02789 21.6501 3.03314 20.6661 4.01585L8.02595 16.5353V22.3475ZM22.5173 5.875L24.6021 7.95195L22.5068 10.0276L20.426 7.94801L22.5173 5.875ZM10.65 17.6295L18.5616 9.79272L20.6424 11.8736L12.7322 19.7077L10.65 19.7143V17.6295Z" />
<path d="M5.40189 27.5786H23.7703C25.2175 27.5786 26.3944 26.4017 26.3944 24.9546V13.5819L23.7703 16.2059V24.9546H9.54529C9.51117 24.9546 9.47575 24.9677 9.44164 24.9677C9.39834 24.9677 9.35504 24.9559 9.31043 24.9546H5.40189V6.58612H14.3854L17.0094 3.96206H5.40189C3.95472 3.96206 2.77783 5.13895 2.77783 6.58612V24.9546C2.77783 26.4017 3.95472 27.5786 5.40189 27.5786Z" />
</g>
</g>
</svg>
