<svg width="18" height="18" viewBox="0 0 18 18" fill="none" xmlns="http://www.w3.org/2000/svg">
<g id="&#236;&#149;&#132;&#236;&#157;&#180;&#236;&#189;&#152;_&#237;&#138;&#184;&#235;&#158;&#156;&#236;&#138;&#164;&#237;&#141;&#188;">
<path id="Vector" d="M16.2634 7.58242C16.3328 7.41488 16.3509 7.23052 16.3155 7.05266C16.2801 6.87481 16.1928 6.71146 16.0645 6.58327L11.4812 2L10.1851 3.29615L13.2036 6.31469H1.66661V8.14799H15.4164C15.5977 8.14804 15.7749 8.09433 15.9257 7.99366C16.0764 7.89299 16.194 7.74988 16.2634 7.58242ZM1.73628 10.5469C1.66688 10.7144 1.64874 10.8988 1.68415 11.0766C1.71955 11.2545 1.80692 11.4178 1.93519 11.546L6.51846 16.1293L7.8146 14.8331L4.79606 11.8146H16.3331V9.9813H2.58326C2.40195 9.98113 2.22467 10.0348 2.07389 10.1355C1.92311 10.2362 1.80561 10.3793 1.73628 10.5469Z" />
</g>
</svg>
