<svg width="18" height="18" viewBox="0 0 18 18" fill="none" xmlns="http://www.w3.org/2000/svg">
<g id="&#236;&#149;&#132;&#236;&#157;&#180;&#236;&#189;&#152;_&#237;&#139;&#176;&#236;&#188;&#147;">
<g id="Vector">
<path d="M15.6665 5.00065V13.2907H13.9132C13.2832 12.6273 12.3998 12.2307 11.4498 12.2307C10.4998 12.2307 9.61317 12.624 8.9865 13.2907H2.33317V5.00065H9.13984C9.7565 5.58065 10.5798 5.91732 11.4532 5.91732C12.3265 5.91732 13.1465 5.58065 13.7665 5.00065H15.6665ZM15.7532 3.33398H12.9665C12.6765 3.87732 12.1098 4.25065 11.4498 4.25065C10.7898 4.25065 10.2232 3.87732 9.93317 3.33398H2.2465C1.37317 3.33398 0.666504 4.04065 0.666504 4.91065V13.374C0.666504 14.2473 1.37317 14.954 2.2465 14.954H9.85984C10.1198 14.3307 10.7365 13.894 11.4532 13.894C12.1698 13.894 12.7832 14.3307 13.0465 14.954H15.7565C16.6298 14.954 17.3365 14.2473 17.3365 13.374V4.91065C17.3332 4.04065 16.6265 3.33398 15.7532 3.33398Z" />
<path d="M11.5565 6.98398H11.5132C11.0832 6.98398 10.7365 7.33398 10.7365 7.76065V7.80398C10.7365 8.23398 11.0865 8.58065 11.5132 8.58065H11.5565C11.9865 8.58065 12.3332 8.23065 12.3332 7.80398V7.76065C12.3332 7.33065 11.9832 6.98398 11.5565 6.98398Z" />
<path d="M11.5565 9.70732H11.5132C11.0832 9.70732 10.7365 10.0573 10.7365 10.484V10.5273C10.7365 10.9573 11.0865 11.304 11.5132 11.304H11.5565C11.9865 11.304 12.3332 10.954 12.3332 10.5273V10.484C12.3332 10.054 11.9832 9.70732 11.5565 9.70732Z" />
</g>
</g>
</svg>
