<svg width="36" height="36" viewBox="0 0 36 36" fill="none" xmlns="http://www.w3.org/2000/svg">
<g id="&#236;&#149;&#132;&#236;&#157;&#180;&#236;&#189;&#152;_&#236;&#151;&#148;&#236;&#151;&#144;&#237;&#148;&#132;&#237;&#139;&#176;">
<g id="Vector">
<path d="M17.7402 5.17968L28.8135 11.573V24.3597L17.7402 30.753L6.66683 24.3597V11.573L17.7402 5.17968ZM17.7402 1.33301L3.3335 9.64634V26.2797L17.7402 34.5997L32.1468 26.2797V9.64634L17.7402 1.33301Z" />
<path fill-rule="evenodd" clip-rule="evenodd" d="M17.6935 22.3663L17.2602 22.1197V17.733L19.4602 16.473L17.6935 15.4597L15.5068 16.713V23.1397L17.6935 24.3863L23.3202 21.1663L21.6135 20.1197L17.6935 22.3663Z" />
<path fill-rule="evenodd" clip-rule="evenodd" d="M17.9402 7.64634L8.8135 12.713V22.8663L10.5535 23.8263V13.693L17.9402 9.58634L21.2668 11.4397L21.6468 9.69968L17.9402 7.64634Z" />
<path fill-rule="evenodd" clip-rule="evenodd" d="M12.1602 14.753V25.0797L17.7068 28.2863L26.6668 23.113V12.7597L24.9602 13.7597V22.1063L17.7068 26.2997L13.8668 24.073V15.7597L17.7068 13.533L21.5468 15.7463L23.2535 14.7663V14.753L17.7068 11.5463L12.1602 14.753Z" />
</g>
</g>
</svg>
