<svg width="101" height="101" viewBox="0 0 101 101" fill="none" xmlns="http://www.w3.org/2000/svg">
<g id="Vector">
<path d="M29.7842 45.9671C36.4238 39.3275 48.0036 39.3275 54.6432 45.9671L58.7863 50.1103L67.0727 41.824L62.9295 37.6808C57.4033 32.1488 50.0429 29.0956 42.2137 29.0956C34.3844 29.0956 27.024 32.1488 21.4979 37.6808L9.0625 50.1103C3.57908 55.6114 0.5 63.0618 0.5 70.829C0.5 78.5963 3.57908 86.0467 9.0625 91.5478C11.7809 94.2701 15.0104 96.4284 18.5655 97.8987C22.1206 99.369 25.9312 100.122 29.7783 100.115C33.6265 100.123 37.4383 99.3706 40.9945 97.9003C44.5507 96.4299 47.7811 94.271 50.5 91.5478L54.6432 87.4046L46.3568 79.1183L42.2137 83.2615C38.9113 86.5491 34.4411 88.3948 29.7813 88.3948C25.1214 88.3948 20.6512 86.5491 17.3488 83.2615C14.0583 79.9606 12.2106 75.4899 12.2106 70.829C12.2106 66.1682 14.0583 61.6975 17.3488 58.3966L29.7842 45.9671Z" fill="#363C60"/>
<path d="M50.5 8.6728L46.3568 12.816L54.6432 21.1023L58.7863 16.9591C62.0887 13.6715 66.5589 11.8258 71.2188 11.8258C75.8786 11.8258 80.3488 13.6715 83.6512 16.9591C86.9417 20.26 88.7894 24.7307 88.7894 29.3916C88.7894 34.0524 86.9417 38.5231 83.6512 41.824L71.2158 54.2535C64.5762 60.8931 52.9964 60.8931 46.3568 54.2535L42.2137 50.1103L33.9273 58.3966L38.0705 62.5398C43.5967 68.0718 50.9571 71.125 58.7863 71.125C66.6156 71.125 73.976 68.0718 79.5021 62.5398L91.9375 50.1103C97.4209 44.6092 100.5 37.1588 100.5 29.3916C100.5 21.6243 97.4209 14.1739 91.9375 8.6728C86.4379 3.18652 78.9869 0.105469 71.2188 0.105469C63.4506 0.105469 55.9995 3.18652 50.5 8.6728Z" fill="#363C60"/>
</g>
</svg>
