<svg width="54" height="54" viewBox="0 0 54 54" xmlns="http://www.w3.org/2000/svg">
<g id="&#236;&#149;&#132;&#236;&#157;&#180;&#236;&#189;&#152;_&#236;&#186;&#152;&#235;&#166;&#176;&#235;&#141;&#148;">
<g id="Vector">
<path d="M43.92 7H42V4.5C42 3.83696 41.7366 3.20107 41.2678 2.73223C40.7989 2.26339 40.163 2 39.5 2C38.837 2 38.2011 2.26339 37.7322 2.73223C37.2634 3.20107 37 3.83696 37 4.5V7H17V4.5C17 3.83696 16.7366 3.20107 16.2678 2.73223C15.7989 2.26339 15.163 2 14.5 2C13.837 2 13.2011 2.26339 12.7322 2.73223C12.2634 3.20107 12 3.83696 12 4.5V7H10.08C7.93705 7 5.88187 7.85128 4.36658 9.36658C2.85128 10.8819 2 12.9371 2 15.08V43.92C2 46.0629 2.85128 48.1181 4.36658 49.6334C5.88187 51.1487 7.93705 52 10.08 52H43.92C46.0629 52 48.1181 51.1487 49.6334 49.6334C51.1487 48.1181 52 46.0629 52 43.92V15.08C52 12.9371 51.1487 10.8819 49.6334 9.36658C48.1181 7.85128 46.0629 7 43.92 7ZM47 43.92C47 44.7369 46.6755 45.5203 46.0979 46.0979C45.5203 46.6755 44.7369 47 43.92 47H10.08C9.26313 47 8.47972 46.6755 7.90211 46.0979C7.3245 45.5203 7 44.7369 7 43.92V15.08C7 14.2631 7.3245 13.4797 7.90211 12.9021C8.47972 12.3245 9.26313 12 10.08 12H12V14.5C12 15.163 12.2634 15.7989 12.7322 16.2678C13.2011 16.7366 13.837 17 14.5 17C15.163 17 15.7989 16.7366 16.2678 16.2678C16.7366 15.7989 17 15.163 17 14.5V12H37V14.5C37 15.163 37.2634 15.7989 37.7322 16.2678C38.2011 16.7366 38.837 17 39.5 17C40.163 17 40.7989 16.7366 41.2678 16.2678C41.7366 15.7989 42 15.163 42 14.5V12H43.92C44.7369 12 45.5203 12.3245 46.0979 12.9021C46.6755 13.4797 47 14.2631 47 15.08V43.92Z" />
<path d="M27 30C28.3807 30 29.5 28.8807 29.5 27.5C29.5 26.1193 28.3807 25 27 25C25.6193 25 24.5 26.1193 24.5 27.5C24.5 28.8807 25.6193 30 27 30Z" />
<path d="M27 39C28.3807 39 29.5 37.8807 29.5 36.5C29.5 35.1193 28.3807 34 27 34C25.6193 34 24.5 35.1193 24.5 36.5C24.5 37.8807 25.6193 39 27 39Z" />
<path d="M18 39C19.3807 39 20.5 37.8807 20.5 36.5C20.5 35.1193 19.3807 34 18 34C16.6193 34 15.5 35.1193 15.5 36.5C15.5 37.8807 16.6193 39 18 39Z" />
<path d="M36 30C37.3807 30 38.5 28.8807 38.5 27.5C38.5 26.1193 37.3807 25 36 25C34.6193 25 33.5 26.1193 33.5 27.5C33.5 28.8807 34.6193 30 36 30Z" />
<path d="M36 39C37.3807 39 38.5 37.8807 38.5 36.5C38.5 35.1193 37.3807 34 36 34C34.6193 34 33.5 35.1193 33.5 36.5C33.5 37.8807 34.6193 39 36 39Z" />
</g>
</g>
</svg>
