<svg width="54" height="54" viewBox="0 0 54 54" xmlns="http://www.w3.org/2000/svg">
<g id="&#236;&#149;&#132;&#236;&#157;&#180;&#236;&#189;&#152;_&#235;&#179;&#180;&#235;&#147;&#156;">
<g id="Vector">
<path d="M45.67 14.1028L42.44 8.10283C41.4135 6.26262 39.7024 4.9017 37.6784 4.31565C35.6544 3.7296 33.4809 3.96576 31.63 4.97283L15 13.9728H10C7.87827 13.9728 5.84344 14.8157 4.34315 16.316C2.84285 17.8163 2 19.8511 2 21.9728V40.9728C2 43.0946 2.84285 45.1294 4.34315 46.6297C5.84344 48.13 7.87827 48.9728 10 48.9728H44C46.1217 48.9728 48.1566 48.13 49.6569 46.6297C51.1571 45.1294 52 43.0946 52 40.9728V21.9728C52.0106 20.1332 51.3869 18.3461 50.2339 16.9126C49.0809 15.4792 47.4691 14.4868 45.67 14.1028ZM34 9.33283C34.4352 9.09453 34.9238 8.97066 35.42 8.97283C35.958 8.97316 36.486 9.11814 36.9487 9.3926C37.4114 9.66705 37.7918 10.0609 38.05 10.5328L39.89 13.9728H25.52L34 9.33283ZM47 40.9728C47 41.7685 46.6839 42.5315 46.1213 43.0942C45.5587 43.6568 44.7957 43.9728 44 43.9728H10C9.20435 43.9728 8.44129 43.6568 7.87868 43.0942C7.31607 42.5315 7 41.7685 7 40.9728V21.9728C7 21.1772 7.31607 20.4141 7.87868 19.8515C8.44129 19.2889 9.20435 18.9728 10 18.9728H44C44.7957 18.9728 45.5587 19.2889 46.1213 19.8515C46.6839 20.4141 47 21.1772 47 21.9728V40.9728Z" />
<path d="M39.5 23.9328H14.5C13.1193 23.9328 12 25.0521 12 26.4328C12 27.8135 13.1193 28.9328 14.5 28.9328H39.5C40.8807 28.9328 42 27.8135 42 26.4328C42 25.0521 40.8807 23.9328 39.5 23.9328Z" />
</g>
</g>
</svg>
