<svg width="54" height="54" viewBox="0 0 54 54" xmlns="http://www.w3.org/2000/svg">
<g id="&#236;&#149;&#132;&#236;&#157;&#180;&#236;&#189;&#152;_&#236;&#162;&#133;">
<g id="Vector">
<path d="M30.0136 43.0136V44.0136C30.0136 44.8092 29.6975 45.5723 29.1349 46.1349C28.5723 46.6975 27.8092 47.0136 27.0136 47.0136C26.2179 47.0136 25.4548 46.6975 24.8922 46.1349C24.3296 45.5723 24.0136 44.8092 24.0136 44.0136V43.0136H19.0136V44.0136C19.0136 46.1353 19.8564 48.1701 21.3567 49.6704C22.857 51.1707 24.8918 52.0136 27.0136 52.0136C29.1353 52.0136 31.1701 51.1707 32.6704 49.6704C34.1707 48.1701 35.0136 46.1353 35.0136 44.0136V43.0136H30.0136Z" />
<path d="M46.3736 38.0136C45.7477 38.0136 45.1474 37.7649 44.7048 37.3223C44.2622 36.8797 44.0136 36.2795 44.0136 35.6536V24.0136C44.0099 19.9407 42.5442 16.0045 39.883 12.9212C37.2218 9.83791 33.5422 7.81251 29.5136 7.21356V4.65356C29.5295 4.01524 29.31 3.39337 28.8969 2.90649C28.4838 2.41961 27.906 2.10177 27.2736 2.01356C26.9241 1.97701 26.5708 2.01454 26.2368 2.12371C25.9028 2.23287 25.5956 2.41122 25.3352 2.64712C25.0748 2.88301 24.867 3.17115 24.7254 3.49275C24.5838 3.81435 24.5117 4.16218 24.5136 4.51356V7.21356C20.485 7.81251 16.8053 9.83791 14.1441 12.9212C11.483 16.0045 10.0172 19.9407 10.0136 24.0136V35.6536C10.0136 36.2795 9.76492 36.8797 9.32233 37.3223C8.87975 37.7649 8.27947 38.0136 7.65356 38.0136C7.01524 37.9976 6.39337 38.2171 5.90649 38.6302C5.41961 39.0433 5.10177 39.6212 5.01356 40.2536C4.97701 40.603 5.01454 40.9563 5.12371 41.2903C5.23287 41.6243 5.41122 41.9315 5.64712 42.1919C5.88301 42.4524 6.17115 42.6601 6.49275 42.8017C6.81435 42.9433 7.16218 43.0155 7.51356 43.0136H46.5136C46.8649 43.0155 47.2128 42.9433 47.5344 42.8017C47.856 42.6601 48.1441 42.4524 48.38 42.1919C48.6159 41.9315 48.7942 41.6243 48.9034 41.2903C49.0126 40.9563 49.0501 40.603 49.0136 40.2536C48.9254 39.6212 48.6075 39.0433 48.1206 38.6302C47.6338 38.2171 47.0119 37.9976 46.3736 38.0136ZM15.0136 38.0136V24.3636C14.9811 21.3362 16.0708 18.4041 18.0725 16.1328C20.0743 13.8615 22.8462 12.4119 25.8536 12.0636C27.5199 11.9017 29.2017 12.0904 30.7908 12.6173C32.3799 13.1443 33.8411 13.998 35.0806 15.1235C36.32 16.249 37.3103 17.6214 37.9876 19.1524C38.665 20.6835 39.0144 22.3394 39.0136 24.0136V38.0136H15.0136Z" />
</g>
</g>
</svg>
