<svg width="18" height="18" viewBox="0 0 18 18" fill="none" xmlns="http://www.w3.org/2000/svg">
<g id="&#236;&#149;&#132;&#236;&#157;&#180;&#236;&#189;&#152;_&#235;&#166;&#172;&#235;&#141;&#148;&#235;&#179;&#180;&#235;&#147;&#156;">
<path id="Vector" d="M16.2 2.6H13.8V1.8C13.8 1.58783 13.7157 1.38434 13.5657 1.23431C13.4157 1.08429 13.2122 1 13 1H5C4.78783 1 4.58434 1.08429 4.43431 1.23431C4.28429 1.38434 4.2 1.58783 4.2 1.8V2.6H1.8C1.58783 2.6 1.38434 2.68429 1.23431 2.83431C1.08429 2.98434 1 3.18783 1 3.4V5.8C1 9.248 2.4392 11.328 4.8552 11.4096C5.20889 12.0174 5.6918 12.5401 6.26978 12.9408C6.84776 13.3414 7.5067 13.6101 8.2 13.728V15.4H6.6V17H11.4V15.4H9.8V13.728C10.4931 13.6097 11.1519 13.3407 11.7298 12.9401C12.3077 12.5396 12.7907 12.0171 13.1448 11.4096C15.5608 11.328 17 9.248 17 5.8V3.4C17 3.18783 16.9157 2.98434 16.7657 2.83431C16.6157 2.68429 16.4122 2.6 16.2 2.6ZM2.6 5.8V4.2H4.2V9.664C2.7728 9.0624 2.6 6.8392 2.6 5.8ZM9 12.2C7.2352 12.2 5.8 10.7648 5.8 9V2.6H12.2V9C12.2 10.7648 10.7648 12.2 9 12.2ZM13.8 9.664V4.2H15.4V5.8C15.4 6.8392 15.2272 9.0624 13.8 9.664Z" />
</g>
</svg>
