<svg width="54" height="54" viewBox="0 0 54 54" xmlns="http://www.w3.org/2000/svg">
<g id="&#236;&#149;&#132;&#236;&#157;&#180;&#236;&#189;&#152;_&#235;&#176;&#149;&#236;&#138;&#164;">
<g id="Vector">
<path d="M50.86 13.35L44.92 4.77C44.3268 3.9161 43.5359 3.21827 42.6149 2.73596C41.6938 2.25365 40.6697 2.00116 39.63 2H14.37C13.3303 2.00116 12.3062 2.25365 11.3851 2.73596C10.4641 3.21827 9.67321 3.9161 9.08 4.77L3.14 13.35C2.39922 14.4232 2.00169 15.696 2 17V45.56C2 47.268 2.6785 48.906 3.88623 50.1138C5.09397 51.3215 6.73201 52 8.44 52H45.56C47.268 52 48.906 51.3215 50.1138 50.1138C51.3215 48.906 52 47.268 52 45.56V17C51.9983 15.696 51.6008 14.4232 50.86 13.35ZM39.63 7C39.8623 6.99975 40.0911 7.05608 40.2967 7.1641C40.5023 7.27213 40.6784 7.4286 40.81 7.62L44.53 13H29.53V7H39.63ZM13.19 7.62C13.3216 7.4286 13.4977 7.27213 13.7033 7.1641C13.9089 7.05608 14.1378 6.99975 14.37 7H24.5V13H9.5L13.19 7.62ZM47 45.56C47.0013 45.7495 46.965 45.9373 46.8931 46.1126C46.8212 46.2879 46.7152 46.4472 46.5812 46.5812C46.4472 46.7152 46.2879 46.8212 46.1126 46.8931C45.9373 46.965 45.7495 47.0013 45.56 47H8.44C8.25053 47.0013 8.06268 46.965 7.88737 46.8931C7.71206 46.8212 7.55278 46.7152 7.4188 46.5812C7.28482 46.4472 7.1788 46.2879 7.1069 46.1126C7.03501 45.9373 6.99867 45.7495 7 45.56V19.25C7 18.9185 7.1317 18.6005 7.36612 18.3661C7.60054 18.1317 7.91848 18 8.25 18H45.75C46.0815 18 46.3995 18.1317 46.6339 18.3661C46.8683 18.6005 47 18.9185 47 19.25V45.56Z" />
<path d="M34.5 23H19.5C18.1193 23 17 24.1193 17 25.5C17 26.8807 18.1193 28 19.5 28H34.5C35.8807 28 37 26.8807 37 25.5C37 24.1193 35.8807 23 34.5 23Z" />
</g>
</g>
</svg>
