<svg width="54" height="54" viewBox="0 0 54 54" xmlns="http://www.w3.org/2000/svg">
<g id="&#236;&#149;&#132;&#236;&#157;&#180;&#236;&#189;&#152;_&#235;&#143;&#136;">
<g id="Vector">
<path d="M41.77 20.06H41.52C41.1909 20.0626 40.8644 20.0002 40.5595 19.8764C40.2545 19.7526 39.977 19.5697 39.7428 19.3384C39.5087 19.107 39.3225 18.8317 39.1951 18.5283C39.0676 18.2248 39.0013 17.8992 39 17.57C39 16.9123 38.7387 16.2815 38.2736 15.8164C37.8085 15.3513 37.1777 15.09 36.52 15.09H16.69C16.0323 15.09 15.4015 15.3513 14.9364 15.8164C14.4713 16.2815 14.21 16.9123 14.21 17.57V21.91C14.21 22.5677 14.4713 23.1985 14.9364 23.6636C15.4015 24.1287 16.0323 24.39 16.69 24.39H37.91C39.854 24.39 41.7185 25.1623 43.0931 26.5369C44.4677 27.9115 45.24 29.776 45.24 31.72V36.72C45.2268 38.6554 44.4487 40.507 43.0755 41.8708C41.7023 43.2346 39.8454 44 37.91 44H15.33C13.386 44 11.5215 43.2277 10.1469 41.8531C8.77227 40.4785 8 38.614 8 36.67V36.43C7.99999 35.7713 8.26096 35.1395 8.72577 34.6728C9.19057 34.2062 9.82135 33.9426 10.48 33.94H10.73C11.3887 33.9426 12.0194 34.2062 12.4842 34.6728C12.949 35.1395 13.21 35.7713 13.21 36.43C13.2126 37.0887 13.4762 37.7194 13.9428 38.1842C14.4095 38.649 15.0413 38.91 15.7 38.91H37.54C38.1943 38.9047 38.8199 38.6411 39.2807 38.1766C39.7415 37.7121 40 37.0843 40 36.43V32C40.0013 31.6726 39.9378 31.3483 39.8132 31.0456C39.6885 30.7429 39.5051 30.4678 39.2736 30.2364C39.0422 30.0049 38.7671 29.8215 38.4644 29.6968C38.1617 29.5722 37.8374 29.5087 37.51 29.51H16.32C15.3557 29.5087 14.4012 29.3171 13.5111 28.9463C12.6209 28.5755 11.8127 28.0327 11.1327 27.349C10.4528 26.6653 9.91435 25.8541 9.54838 24.962C9.1824 24.0698 8.99605 23.1143 9 22.15V17.33C9 15.3877 9.77089 13.5248 11.1434 12.1504C12.5159 10.7761 14.3777 10.0027 16.32 10H36.92C38.864 10 40.7285 10.7723 42.1031 12.1469C43.4777 13.5215 44.25 15.386 44.25 17.33V17.57C44.25 18.2287 43.989 18.8605 43.5242 19.3272C43.0594 19.7938 42.4287 20.0574 41.77 20.06Z" />
<path d="M24 4.5V10H29V4.5C29 3.83696 28.7366 3.20107 28.2678 2.73223C27.7989 2.26339 27.163 2 26.5 2C25.837 2 25.2011 2.26339 24.7322 2.73223C24.2634 3.20107 24 3.83696 24 4.5ZM26.5 52C27.163 52 27.7989 51.7366 28.2678 51.2678C28.7366 50.7989 29 50.163 29 49.5V44H24V49.5C24 50.163 24.2634 50.7989 24.7322 51.2678C25.2011 51.7366 25.837 52 26.5 52Z" />
</g>
</g>
</svg>
