<svg width="54" height="54" viewBox="0 0 54 54" xmlns="http://www.w3.org/2000/svg">
<g id="&#236;&#149;&#132;&#236;&#157;&#180;&#236;&#189;&#152;_&#235;&#160;&#136;&#235;&#148;&#167;">
<path id="reddit-[#143]" fill-rule="evenodd" clip-rule="evenodd" d="M34.5725 34.1189C32.6675 34.1189 31.07 32.5547 31.07 30.6252C31.07 28.6932 32.6675 27.0779 34.5725 27.0779C36.475 27.0779 38.0175 28.6932 38.0175 30.6252C38.0175 32.5547 36.4775 34.1189 34.5725 34.1189ZM35.0575 40.574C33.375 42.2779 30.7375 43.1069 26.9975 43.1069C23.255 43.1069 20.62 42.2779 18.94 40.574C18.575 40.2038 18.575 39.6051 18.94 39.2324C19.3025 38.8622 19.895 38.8622 20.26 39.2324C21.5725 40.5636 23.775 41.2124 26.9975 41.2124C30.2175 41.2124 32.4225 40.5636 33.7375 39.2324C34.1 38.8622 34.6925 38.8622 35.0575 39.2324C35.4225 39.6051 35.4225 40.2038 35.0575 40.574ZM15.98 30.6252C15.98 28.6957 17.575 27.0779 19.4775 27.0779C21.38 27.0779 22.9225 28.6957 22.9225 30.6252C22.9225 32.5547 21.38 34.1189 19.4775 34.1189C17.575 34.1189 15.98 32.5547 15.98 30.6252ZM52 26.7837C52 23.6168 49.46 21.0403 46.3375 21.0403C44.8975 21.0403 43.54 21.5851 42.5 22.5613C38.7625 20.0942 33.7575 18.4995 28.215 18.2815L31.2725 8.81738L39.3025 10.7339C39.305 13.3404 41.395 15.458 43.965 15.458C46.535 15.458 48.6275 13.3355 48.6275 10.729C48.6275 8.1225 46.535 6 43.965 6C42.04 6 40.3875 7.18602 39.675 8.8772C37.945 8.4639 31.76 6.98578 30.03 6.57251L26.255 18.262C20.5025 18.371 15.29 19.9578 11.4125 22.4832C10.385 21.5577 9.055 21.0403 7.66 21.0403C4.54 21.0403 2 23.6168 2 26.7837C2 28.7943 3.035 30.6369 4.69 31.6714C3.1825 40.7028 13.675 48.5 26.895 48.5C40.06 48.5 50.5175 40.7719 49.1225 31.7861C50.8925 30.7795 52 28.8932 52 26.7837Z" />
</g>
</svg>
