<svg width="54" height="54" viewBox="0 0 54 54" xmlns="http://www.w3.org/2000/svg">
<g id="&#236;&#149;&#132;&#236;&#157;&#180;&#236;&#189;&#152;_&#234;&#181;&#172;&#235;&#166;&#132;">
<g id="Vector">
<path d="M36.7032 41.974H14.3332C11.6081 41.9725 8.96019 41.069 6.80256 39.4045C4.64493 37.74 3.09895 35.4081 2.40584 32.7726C1.71272 30.1372 1.91146 27.3465 2.97104 24.8358C4.03062 22.3252 5.89144 20.2359 8.26317 18.894V18.444C8.2691 14.9211 9.47724 11.5058 11.6878 8.76277C13.8984 6.01977 16.9789 4.11341 20.4201 3.35895C23.8612 2.60449 27.4568 3.04711 30.6122 4.61363C33.7676 6.18015 36.2939 8.77673 37.7732 11.974C41.7514 12.1159 45.5104 13.8323 48.2231 16.7457C50.9358 19.659 52.3801 23.5307 52.2382 27.509C52.0963 31.4872 50.3798 35.2462 47.4665 37.9589C44.5531 40.6716 40.6814 42.1159 36.7032 41.974ZM23.7032 7.97397C20.9314 7.98453 18.2766 9.09164 16.3185 11.0534C14.3605 13.0152 13.2584 15.6722 13.2532 18.444C13.2606 18.9767 13.3074 19.5081 13.3932 20.034L13.7032 22.034L11.7932 22.744C10.1743 23.3385 8.81643 24.4842 7.95786 25.9799C7.09929 27.4757 6.79482 29.2259 7.09787 30.9237C7.40092 32.6215 8.29213 34.1584 9.61516 35.2647C10.9382 36.3711 12.6085 36.9762 14.3332 36.974H36.7032C39.3553 36.974 41.8989 35.9204 43.7742 34.045C45.6496 32.1697 46.7032 29.6261 46.7032 26.974C46.7032 24.3218 45.6496 21.7783 43.7742 19.9029C41.8989 18.0275 39.3553 16.974 36.7032 16.974H36.4532L34.2832 17.084L33.6932 15.264C33.0235 13.1479 31.6969 11.3003 29.9059 9.98945C28.1148 8.67856 25.9527 7.97257 23.7332 7.97397H23.7032Z" />
<path d="M36.3632 46.474H17.3632C15.9825 46.474 14.8632 47.5933 14.8632 48.974C14.8632 50.3547 15.9825 51.474 17.3632 51.474H36.3632C37.7439 51.474 38.8632 50.3547 38.8632 48.974C38.8632 47.5933 37.7439 46.474 36.3632 46.474Z" />
</g>
</g>
</svg>
