<svg width="54" height="54" viewBox="0 0 54 54" xmlns="http://www.w3.org/2000/svg">
<g id="&#236;&#149;&#132;&#236;&#157;&#180;&#236;&#189;&#152;_&#237;&#153;&#149;&#236;&#132;&#177;&#234;&#184;&#176;">
<g id="Vector">
<path d="M37.45 5.00008C36.928 5.01172 36.4221 5.1827 36 5.49008C26.15 12.5301 14 14.0001 6.81 14.0001H4.54C3.86808 14.0001 3.22353 14.2663 2.74748 14.7405C2.27142 15.2147 2.00265 15.8582 2 16.5301V27.1001C2 27.7737 2.26761 28.4198 2.74395 28.8961C3.22029 29.3725 3.86635 29.6401 4.54 29.6401H4.66C5.31 29.6401 6.03 29.5901 6.81 29.5901H6.91L8.6 46.0001C8.71102 47.0477 9.2054 48.0173 9.98809 48.7225C10.7708 49.4276 11.7865 49.8185 12.84 49.8201H19.28C19.8755 49.8205 20.4644 49.6957 21.0085 49.4539C21.5527 49.2122 22.04 48.8587 22.4388 48.4165C22.8376 47.9743 23.1391 47.4533 23.3236 46.8871C23.5082 46.321 23.5716 45.7224 23.51 45.1301L22.13 31.6801C27.0949 33.0026 31.7893 35.1857 36 38.1301C36.435 38.4502 36.9599 38.6252 37.5 38.6301C38.1667 38.6196 38.8025 38.3473 39.2702 37.8721C39.738 37.3969 40.0001 36.7569 40 36.0901V7.54008C40.0013 7.2053 39.9362 6.87359 39.8084 6.56417C39.6806 6.25475 39.4927 5.97377 39.2555 5.73751C39.0183 5.50125 38.7366 5.31442 38.4267 5.18783C38.1167 5.06125 37.7848 4.99743 37.45 5.00008ZM18.45 44.8101H13.45L12 29.8301C13.58 29.9801 15.27 30.1901 17 30.5101L18.45 44.8101ZM35 31.6001C24.1 25.4001 12.17 24.6001 7 24.6001V19.0001C12.17 19.0001 24.1 18.1801 35 12.0001V31.6001Z" />
<path d="M43 15.82C43.0008 16.3113 43.1464 16.7915 43.4185 17.2005C43.6906 17.6096 44.0772 17.9294 44.53 18.12C45.2606 18.4229 45.885 18.9356 46.3243 19.5933C46.7636 20.251 46.998 21.0241 46.998 21.815C46.998 22.6059 46.7636 23.379 46.3243 24.0367C45.885 24.6944 45.2606 25.2071 44.53 25.51C44.0756 25.6984 43.6876 26.0177 43.4151 26.4273C43.1427 26.8368 42.9982 27.3181 43 27.81C42.997 28.2162 43.0934 28.617 43.2809 28.9774C43.4683 29.3378 43.7411 29.6468 44.0754 29.8776C44.4097 30.1083 44.7954 30.2538 45.1989 30.3013C45.6023 30.3488 46.0112 30.2968 46.39 30.15C48.0499 29.4767 49.4712 28.3233 50.4718 26.8376C51.4725 25.3518 52.007 23.6013 52.007 21.81C52.007 20.0187 51.4725 18.2682 50.4718 16.7824C49.4712 15.2967 48.0499 14.1433 46.39 13.47C46.0104 13.3254 45.6013 13.2754 45.198 13.3245C44.7948 13.3736 44.4095 13.5202 44.0757 13.7516C43.7418 13.983 43.4694 14.2923 43.282 14.6527C43.0945 15.0131 42.9978 15.4138 43 15.82Z" />
</g>
</g>
</svg>
