<svg width="54" height="54" viewBox="0 0 54 54" xmlns="http://www.w3.org/2000/svg">
<g id="&#236;&#149;&#132;&#236;&#157;&#180;&#236;&#189;&#152;_&#234;&#185;&#131;&#235;&#176;&#156;">
<g id="Vector">
<path d="M42.58 17.61L45.42 10.78C45.5929 10.3651 45.6606 9.91401 45.6173 9.46668C45.5739 9.01934 45.4208 8.58962 45.1715 8.21567C44.9222 7.84172 44.5844 7.5351 44.1882 7.32303C43.7919 7.11096 43.3494 7 42.9 7H18V4.5C18 3.83696 17.7366 3.20107 17.2678 2.73223C16.7989 2.26339 16.163 2 15.5 2C14.837 2 14.2011 2.26339 13.7322 2.73223C13.2634 3.20107 13 3.83696 13 4.5V40.5C13 40.8283 13.0647 41.1534 13.1903 41.4567C13.3159 41.76 13.5001 42.0356 13.7322 42.2678C13.9644 42.4999 14.24 42.6841 14.5433 42.8097C14.8466 42.9353 15.1717 43 15.5 43C15.8283 43 16.1534 42.9353 16.4567 42.8097C16.76 42.6841 17.0356 42.4999 17.2678 42.2678C17.4999 42.0356 17.6841 41.76 17.8097 41.4567C17.9353 41.1534 18 40.8283 18 40.5V31H42.9C43.3494 31 43.7919 30.889 44.1882 30.677C44.5844 30.4649 44.9222 30.1583 45.1715 29.7843C45.4208 29.4104 45.5739 28.9807 45.6173 28.5333C45.6606 28.086 45.5929 27.6349 45.42 27.22L42.58 20.39C42.3968 19.9495 42.3025 19.4771 42.3025 19C42.3025 18.5229 42.3968 18.0505 42.58 17.61ZM18 26V12H38.59C38.6896 12.0008 38.7874 12.026 38.8751 12.0733C38.9627 12.1207 39.0373 12.1888 39.0926 12.2716C39.1478 12.3545 39.1819 12.4496 39.1919 12.5487C39.202 12.6477 39.1875 12.7478 39.15 12.84L37.15 17.61C36.9668 18.0505 36.8725 18.5229 36.8725 19C36.8725 19.4771 36.9668 19.9495 37.15 20.39L39.15 25.16C39.1875 25.2522 39.202 25.3523 39.1919 25.4513C39.1819 25.5504 39.1478 25.6455 39.0926 25.7284C39.0373 25.8112 38.9627 25.8793 38.8751 25.9267C38.7874 25.974 38.6896 25.9992 38.59 26H18Z" />
<path d="M20.5 47H10.5C9.83696 47 9.20107 47.2634 8.73223 47.7322C8.26339 48.2011 8 48.837 8 49.5C8 50.163 8.26339 50.7989 8.73223 51.2678C9.20107 51.7366 9.83696 52 10.5 52H20.5C21.163 52 21.7989 51.7366 22.2678 51.2678C22.7366 50.7989 23 50.163 23 49.5C23 48.837 22.7366 48.2011 22.2678 47.7322C21.7989 47.2634 21.163 47 20.5 47Z" />
</g>
</g>
</svg>
