<svg width="54" height="54" viewBox="0 0 54 54" xmlns="http://www.w3.org/2000/svg">
<g id="&#236;&#149;&#132;&#236;&#157;&#180;&#236;&#189;&#152;_&#236;&#185;&#180;&#237;&#138;&#184;">
<g id="Vector">
<path d="M45.2581 11H28.7381C28.0751 11 27.4392 11.2634 26.9703 11.7322C26.5015 12.2011 26.2381 12.837 26.2381 13.5C26.2381 14.1631 26.5015 14.7989 26.9703 15.2678C27.4392 15.7366 28.0751 16 28.7381 16H45.2581C45.4655 15.9982 45.6707 16.0421 45.8591 16.1287C46.0476 16.2153 46.2146 16.3424 46.3483 16.5009C46.482 16.6595 46.5791 16.8455 46.6326 17.0459C46.6862 17.2462 46.6949 17.4559 46.6581 17.66L42.8681 35.83C42.8115 36.1576 42.641 36.4547 42.3867 36.6687C42.1323 36.8828 41.8105 37.0001 41.4781 37H25.2781C24.9457 37.0001 24.6239 36.8828 24.3695 36.6687C24.1152 36.4547 23.9447 36.1576 23.8881 35.83L18.3581 4.00001C18.2467 3.43528 17.9423 2.92689 17.4971 2.56199C17.052 2.19709 16.4937 1.99841 15.9181 2.00001H4.4981C4.11715 2.0003 3.74131 2.08764 3.39927 2.25537C3.05724 2.4231 2.75805 2.66677 2.52458 2.96779C2.2911 3.2688 2.1295 3.61919 2.05212 3.9922C1.97474 4.36521 1.98362 4.75096 2.0781 5.12001C2.23005 5.6724 2.56291 6.15786 3.0234 6.49869C3.4839 6.83953 4.04541 7.01605 4.6181 7.00001H13.8781L18.9981 36.68C19.2558 38.162 20.0257 39.5064 21.1734 40.4787C22.3212 41.451 23.7739 41.9894 25.2781 42H41.4781C42.9892 41.9988 44.4514 41.4647 45.6074 40.4916C46.7635 39.5184 47.5392 38.1687 47.7981 36.68L51.5881 18.5C51.7453 17.5787 51.6995 16.6342 51.4538 15.7324C51.2082 14.8307 50.7686 13.9935 50.1657 13.2792C49.5629 12.565 48.8114 11.991 47.9638 11.5973C47.1161 11.2036 46.1927 10.9998 45.2581 11Z" />
<path d="M38.3781 25C39.0411 25 39.677 24.7366 40.1459 24.2678C40.6147 23.7989 40.8781 23.1631 40.8781 22.5C40.8781 21.837 40.6147 21.2011 40.1459 20.7322C39.677 20.2634 39.0411 20 38.3781 20H30.3781C29.7151 20 29.0792 20.2634 28.6103 20.7322C28.1415 21.2011 27.8781 21.837 27.8781 22.5C27.8781 23.1631 28.1415 23.7989 28.6103 24.2678C29.0792 24.7366 29.7151 25 30.3781 25H38.3781Z" />
<path d="M26.3781 52C28.3111 52 29.8781 50.433 29.8781 48.5C29.8781 46.567 28.3111 45 26.3781 45C24.4451 45 22.8781 46.567 22.8781 48.5C22.8781 50.433 24.4451 52 26.3781 52Z" />
<path d="M40.3781 52C42.3111 52 43.8781 50.433 43.8781 48.5C43.8781 46.567 42.3111 45 40.3781 45C38.4451 45 36.8781 46.567 36.8781 48.5C36.8781 50.433 38.4451 52 40.3781 52Z" />
<path d="M38.8781 30.5C38.8781 29.837 38.6147 29.2011 38.1459 28.7322C37.677 28.2634 37.0411 28 36.3781 28H31.3781C30.7151 28 30.0792 28.2634 29.6103 28.7322C29.1415 29.2011 28.8781 29.837 28.8781 30.5C28.8781 31.1631 29.1415 31.7989 29.6103 32.2678C30.0792 32.7366 30.7151 33 31.3781 33H36.3781C37.0411 33 37.677 32.7366 38.1459 32.2678C38.6147 31.7989 38.8781 31.1631 38.8781 30.5Z" />
</g>
</g>
</svg>
