<svg width="54" height="54" viewBox="0 0 54 54" xmlns="http://www.w3.org/2000/svg">
<g id="&#236;&#149;&#132;&#236;&#157;&#180;&#236;&#189;&#152;_&#237;&#138;&#184;&#236;&#156;&#132;&#237;&#132;&#176;">
<path id="twitter-[#154]" fill-rule="evenodd" clip-rule="evenodd" d="M17.725 46.9995C36.5925 46.9995 46.9125 31.6084 46.9125 18.2629C46.9125 17.8248 46.9125 17.39 46.8825 16.9568C48.89 15.5292 50.6225 13.7566 52 11.7285C50.13 12.5457 48.1425 13.0816 46.11 13.3178C48.25 12.0552 49.8525 10.0714 50.62 7.73069C48.605 8.90721 46.4025 9.73756 44.105 10.1831C40.22 6.11691 33.7225 5.9199 29.59 9.74485C26.9275 12.2111 25.795 15.8883 26.6225 19.3957C18.375 18.9872 10.69 15.1524 5.48 8.84397C2.7575 13.459 4.15 19.3607 8.6575 22.3242C7.025 22.2774 5.4275 21.8447 4 21.062V21.1902C4.0025 25.9972 7.445 30.1363 12.23 31.0888C10.72 31.495 9.135 31.5539 7.6 31.261C8.9425 35.3764 12.795 38.1951 17.1825 38.2763C13.55 41.0872 9.0625 42.6135 4.4425 42.6086C3.6275 42.6061 2.8125 42.5593 2 42.4634C6.6925 45.4268 12.15 46.9995 17.725 46.9922" />
</g>
</svg>
