<svg width="30" height="30" viewBox="0 0 30 30" fill="none" xmlns="http://www.w3.org/2000/svg">
<g id="&#236;&#149;&#132;&#236;&#157;&#180;&#236;&#189;&#152;_&#236;&#162;&#133;">
<g id="Vector">
<path d="M16.6743 23.8966V24.4522C16.6743 24.8942 16.4987 25.3181 16.1861 25.6307C15.8735 25.9433 15.4496 26.1189 15.0076 26.1189C14.5656 26.1189 14.1416 25.9433 13.8291 25.6307C13.5165 25.3181 13.3409 24.8942 13.3409 24.4522V23.8966H10.5631V24.4522C10.5631 25.6309 11.0314 26.7614 11.8649 27.5949C12.6984 28.4284 13.8288 28.8966 15.0076 28.8966C16.1863 28.8966 17.3168 28.4284 18.1503 27.5949C18.9838 26.7614 19.452 25.6309 19.452 24.4522V23.8966H16.6743Z" />
<path d="M25.7631 21.1189C25.4154 21.1189 25.0819 20.9807 24.836 20.7348C24.5902 20.489 24.452 20.1555 24.452 19.8078V13.3411C24.45 11.0784 23.6357 8.89158 22.1573 7.17865C20.6789 5.46572 18.6346 4.3405 16.3965 4.00775V2.58553C16.4053 2.23091 16.2834 1.88542 16.0539 1.61493C15.8244 1.34445 15.5034 1.16787 15.152 1.11886C14.9579 1.09856 14.7616 1.11941 14.5761 1.18006C14.3905 1.2407 14.2198 1.33978 14.0752 1.47084C13.9305 1.60189 13.815 1.76197 13.7364 1.94064C13.6577 2.1193 13.6176 2.31254 13.6187 2.50775V4.00775C11.3806 4.3405 9.33632 5.46572 7.8579 7.17865C6.37948 8.89158 5.56516 11.0784 5.56314 13.3411V19.8078C5.56314 20.1555 5.42501 20.489 5.17913 20.7348C4.93325 20.9807 4.59976 21.1189 4.25203 21.1189C3.89741 21.11 3.55193 21.2319 3.28144 21.4615C3.01095 21.691 2.83437 22.012 2.78537 22.3633C2.76506 22.5575 2.78591 22.7537 2.84656 22.9393C2.90721 23.1248 3.00629 23.2955 3.13734 23.4402C3.26839 23.5849 3.42847 23.7003 3.60714 23.7789C3.78581 23.8576 3.97905 23.8977 4.17425 23.8966H25.8409C26.0361 23.8977 26.2294 23.8576 26.408 23.7789C26.5867 23.7003 26.7468 23.5849 26.8778 23.4402C27.0089 23.2955 27.108 23.1248 27.1686 22.9393C27.2293 22.7537 27.2501 22.5575 27.2298 22.3633C27.1808 22.012 27.0042 21.691 26.7337 21.4615C26.4632 21.2319 26.1178 21.11 25.7631 21.1189ZM8.34092 21.1189V13.5355C8.32289 11.8537 8.92829 10.2247 10.0404 8.96288C11.1524 7.70104 12.6924 6.89569 14.3631 6.7022C15.2889 6.61229 16.2232 6.71708 17.1061 7.00986C17.9889 7.30263 18.8007 7.77689 19.4893 8.40216C20.1779 9.02743 20.728 9.78987 21.1043 10.6405C21.4806 11.4911 21.6747 12.411 21.6743 13.3411V21.1189H8.34092Z" />
</g>
</g>
</svg>
