<svg width="54" height="54" viewBox="0 0 54 54" xmlns="http://www.w3.org/2000/svg">
<g id="&#236;&#149;&#132;&#236;&#157;&#180;&#236;&#189;&#152;_&#235;&#175;&#184;&#235;&#148;&#148;&#236;&#151;&#132;">
<path id="Vector" d="M16.1017 13C23.8899 13 30.203 19.3571 30.203 27.1985C30.203 35.0399 23.8895 41.3966 16.1017 41.3966C8.31402 41.3966 2 35.0399 2 27.1985C2 19.3571 8.31354 13 16.1017 13ZM38.6212 13.8317C42.5153 13.8317 45.6721 19.8156 45.6721 27.1985H45.6726C45.6726 34.5795 42.5158 40.5653 38.6217 40.5653C34.7276 40.5653 31.5708 34.5795 31.5708 27.1985C31.5708 19.8176 34.7271 13.8317 38.6212 13.8317ZM49.5202 15.224C50.8895 15.224 52 20.5851 52 27.1985C52 33.8101 50.8899 39.1731 49.5202 39.1731C48.1505 39.1731 47.0409 33.8115 47.0409 27.1985C47.0409 20.5855 48.1509 15.224 49.5202 15.224Z" />
</g>
</svg>
