<svg width="20" height="20" viewBox="0 0 20 20" fill="none" xmlns="http://www.w3.org/2000/svg">
<g id="&#236;&#149;&#132;&#236;&#157;&#180;&#236;&#189;&#152;_&#236;&#156;&#160;&#236;&#160;&#128;">
<path id="Vector" d="M10.0002 1.48145C9.10489 1.48145 8.22969 1.74693 7.48527 2.24434C6.74085 2.74175 6.16065 3.44873 5.81803 4.27588C5.47541 5.10304 5.38576 6.01322 5.56043 6.89132C5.7351 7.76942 6.16623 8.57601 6.7993 9.20909C7.43238 9.84217 8.23897 10.2733 9.11707 10.448C9.99518 10.6226 10.9054 10.533 11.7325 10.1904C12.5597 9.84775 13.2666 9.26754 13.7641 8.52312C14.2615 7.7787 14.5269 6.9035 14.5269 6.00819C14.5269 4.80763 14.05 3.65623 13.2011 2.8073C12.3522 1.95837 11.2008 1.48145 10.0002 1.48145ZM18.1483 18.6831V17.7777C18.1483 16.0969 17.4807 14.485 16.2922 13.2965C15.1036 12.108 13.4917 11.4403 11.8109 11.4403H8.1895C6.5087 11.4403 4.89675 12.108 3.70825 13.2965C2.51974 14.485 1.85205 16.0969 1.85205 17.7777V18.6831H3.66275V17.7777C3.66275 16.5772 4.13967 15.4258 4.9886 14.5768C5.83753 13.7279 6.98893 13.251 8.1895 13.251H11.8109C13.0115 13.251 14.1629 13.7279 15.0118 14.5768C15.8607 15.4258 16.3376 16.5772 16.3376 17.7777V18.6831H18.1483Z" />
</g>
</svg>
