<svg width="20" height="20" viewBox="0 0 20 20" fill="none" xmlns="http://www.w3.org/2000/svg">
<g id="&#236;&#149;&#132;&#236;&#157;&#180;&#236;&#189;&#152;_&#236;&#150;&#180;&#236;&#185;&#180;&#236;&#154;&#180;&#237;&#138;&#184;&#235;&#167;&#129;&#237;&#129;&#172;">
<path id="Vector" d="M9.99998 0.740723C4.88517 0.740723 0.740723 4.88517 0.740723 9.99998C0.740723 15.1148 4.88517 19.2592 9.99998 19.2592C15.1148 19.2592 19.2592 15.1148 19.2592 9.99998C19.2592 4.88517 15.1111 0.740723 9.99998 0.740723ZM9.99998 14.2778C9.43332 14.8444 8.66295 15.1629 7.85924 15.1629C7.05554 15.1629 6.28887 14.8444 5.72221 14.2778C4.54443 13.0963 4.54443 11.1815 5.72221 9.99998L7.00739 8.7185C7.57776 8.14813 8.33702 7.83332 9.14443 7.83332C9.95184 7.83332 10.7111 8.14813 11.2815 8.7185L11.7074 9.14443L10.8518 9.99998L10.4222 9.57406C9.73702 8.88887 8.54072 8.88887 7.85554 9.57406L6.57035 10.8555C5.86295 11.5667 5.86295 12.7148 6.57035 13.4222C7.28146 14.1296 8.42591 14.1296 9.13702 13.4222L9.56295 12.9963L10.4185 13.8518L9.99998 14.2778ZM14.2778 9.99998L12.9926 11.2815C12.4222 11.8518 11.6629 12.1666 10.8555 12.1666C10.0481 12.1666 9.28887 11.8518 8.7185 11.2815L8.29258 10.8555L9.14813 9.99998L9.57406 10.4296C10.2592 11.1148 11.4555 11.1148 12.1407 10.4296L13.4259 9.14813C14.1333 8.43702 14.1333 7.28887 13.4259 6.58146C12.7148 5.87406 11.5704 5.87406 10.8592 6.58146L10.4296 7.00739L9.57406 6.15183L9.99998 5.72221C11.1815 4.54443 13.0963 4.54443 14.2778 5.72221C15.4555 6.90369 15.4555 8.8185 14.2778 9.99998Z" fill="#F2702A"/>
</g>
</svg>
