<svg width="30" height="30" viewBox="0 0 30 30" fill="none" xmlns="http://www.w3.org/2000/svg">
<g id="&#236;&#149;&#132;&#236;&#157;&#180;&#236;&#189;&#152;_&#236;&#132;&#156;&#236;&#185;&#152;">
<path id="Vector" d="M26.8496 25.0733L21.565 19.788C21.3052 19.5291 20.9534 19.3838 20.5867 19.3838C20.2199 19.3838 19.8681 19.5291 19.6083 19.788C18.2158 21.1346 16.416 21.9812 14.4909 22.1951C12.5657 22.409 10.624 21.9782 8.96992 20.9702C7.31583 19.9621 6.04281 18.4338 5.35028 16.6246C4.65776 14.8154 4.58486 12.8275 5.14301 10.9724C5.70116 9.11737 6.85882 7.49987 8.43464 6.37334C10.0105 5.24681 11.9154 4.67491 13.851 4.74722C15.7867 4.81953 17.6436 5.53197 19.131 6.77293C20.6184 8.01389 21.6522 9.71325 22.0704 11.6048C22.3701 12.9771 22.3393 14.401 21.9804 15.759C21.938 15.918 21.9273 16.0839 21.949 16.247C21.9707 16.4102 22.0243 16.5675 22.1068 16.71C22.1893 16.8524 22.299 16.9772 22.4298 17.0773C22.5605 17.1773 22.7096 17.2506 22.8686 17.293C23.1898 17.3786 23.5319 17.3331 23.8195 17.1665C24.1072 16.9999 24.3169 16.7258 24.4025 16.4046C25.0919 13.8129 24.8357 11.0603 23.6797 8.64046C22.5236 6.22062 20.5435 4.29181 18.0942 3.19995C15.645 2.10808 12.887 1.92459 10.3148 2.68237C7.74254 3.44015 5.52436 5.08963 4.05804 7.33501C2.59171 9.58039 1.97316 12.2748 2.31331 14.935C2.65346 17.5952 3.93006 20.0472 5.91417 21.8512C7.89828 23.6553 10.4601 24.6934 13.1402 24.7794C15.8204 24.8654 18.4435 23.9937 20.5391 22.3205L25.078 26.8551C25.1943 26.9716 25.3323 27.064 25.4843 27.1271C25.6363 27.1902 25.7992 27.2227 25.9638 27.2227C26.1284 27.2227 26.2913 27.1902 26.4433 27.1271C26.5953 27.064 26.7334 26.9716 26.8496 26.8551C26.9676 26.7386 27.0613 26.5999 27.1253 26.447C27.1892 26.2941 27.2222 26.1299 27.2222 25.9642C27.2222 25.7984 27.1892 25.6343 27.1253 25.4813C27.0613 25.3284 26.9676 25.1897 26.8496 25.0733Z" />
</g>
</svg>
