<svg width="35" height="34" viewBox="0 0 35 34" fill="none" xmlns="http://www.w3.org/2000/svg">
<path id="Vector" d="M17.5 0.013916C17.1656 0.013916 16.8311 0.0250635 16.5023 0.0473586V1.72506C16.8311 1.70277 17.1656 1.69162 17.5 1.69162C25.9498 1.69162 32.8279 8.56965 32.8279 17.0195C32.8279 20.7149 31.5125 24.1093 29.3275 26.7624V26.7513V24.5664H27.1426V22.3703H24.9521V20.1854H27.137V18.0005H29.322V15.8156V13.6195H27.137H24.9521V15.8044H22.7672V13.6195H20.5823V11.4346H18.3974V9.24965H16.2125V7.06474H14.0275V4.86867H11.8426V2.68375H9.65771H7.47279H5.28787H3.10295V4.86867V7.05359V9.23851V11.4234H5.28787V13.6083H7.47279V15.7933H9.65771V17.9782H11.8426V20.1631H14.0275V22.348H16.2125V24.5329H14.0275V26.7179V28.9028H16.2125H18.3974V26.7179H20.5823V24.5329H22.7672V26.7179H24.9521V28.9028H27.1203C24.4895 31.032 21.1397 32.3139 17.4944 32.3139C9.04459 32.3139 2.16656 25.4359 2.16656 16.986C2.16656 16.6516 2.18328 16.3172 2.2 15.9883H0.533443C0.516721 16.3172 0.5 16.6516 0.5 16.986C0.5 26.3611 8.12492 33.986 17.5 33.986C26.8751 33.986 34.5 26.3611 34.5 16.986C34.5 7.61097 26.8751 0.013916 17.5 0.013916ZM20.5823 20.1854H18.3974V18.0005H16.2125V15.8156H14.0275V13.6195H11.8426V11.4346H9.65771V9.24965H11.8426V11.4346H14.0275V13.6195H16.2125V15.8044H18.3974V17.9893H20.5823V20.1854Z" fill="#F17237"/>
</svg>
