<svg width="18" height="18" viewBox="0 0 18 18" fill="none" xmlns="http://www.w3.org/2000/svg">
<g id="&#236;&#149;&#132;&#236;&#157;&#180;&#236;&#189;&#152;_&#237;&#134;&#177;&#235;&#139;&#136;&#235;&#176;&#148;&#237;&#128;&#180;">
<g id="Vector">
<path d="M17.2833 8.09341C17.2586 7.88249 17.1568 7.68816 16.9974 7.54784C16.838 7.40753 16.6323 7.33115 16.42 7.33341C16.3387 7.33294 16.26 7.30552 16.196 7.25544C16.1321 7.20537 16.0866 7.13548 16.0666 7.05674C15.9035 6.47475 15.6695 5.91501 15.37 5.39007C15.3284 5.31992 15.3114 5.23791 15.3217 5.15702C15.3319 5.07612 15.3689 5.00096 15.4266 4.94341C15.5895 4.77795 15.6816 4.55558 15.6833 4.32341C15.6842 4.13205 15.6195 3.94617 15.5 3.79674C15.33 3.58674 15.1666 3.38674 14.9633 3.19341L14.82 3.05007C14.6266 2.86007 14.4266 2.68341 14.2166 2.51341C14.0498 2.3828 13.8408 2.31809 13.6293 2.33162C13.4179 2.34514 13.2188 2.43594 13.07 2.58674C13.0019 2.65491 12.9096 2.69328 12.8133 2.69341C12.7467 2.69338 12.6813 2.67615 12.6233 2.64341C12.0984 2.34381 11.5386 2.10984 10.9566 1.94674C10.8732 1.92892 10.7985 1.88255 10.7456 1.81562C10.6927 1.74869 10.6647 1.66539 10.6666 1.58007C10.667 1.36688 10.59 1.16078 10.45 1.00007C10.3108 0.840845 10.1168 0.739719 9.90662 0.716741C9.30401 0.650084 8.69589 0.650084 8.09329 0.716741C7.88237 0.741421 7.68804 0.843265 7.54772 1.00266C7.40741 1.16206 7.33102 1.36773 7.33329 1.58007C7.33282 1.66129 7.30539 1.74006 7.25532 1.80401C7.20525 1.86796 7.13536 1.91347 7.05662 1.93341C6.47463 2.0965 5.91488 2.33048 5.38995 2.63007C5.3198 2.67164 5.23779 2.68864 5.1569 2.67837C5.076 2.66811 5.00084 2.63118 4.94329 2.57341C4.85902 2.49325 4.75959 2.43073 4.65083 2.38951C4.54207 2.3483 4.42618 2.32922 4.30995 2.33341C4.11878 2.33355 3.93323 2.39814 3.78329 2.51674C3.57329 2.68674 3.37329 2.85007 3.17995 3.05341L3.03662 3.19674C2.84662 3.37341 2.66662 3.57341 2.49995 3.78341C2.37004 3.95052 2.30577 4.1594 2.31928 4.37064C2.33279 4.58188 2.42314 4.78087 2.57329 4.93007C2.64145 4.99811 2.67982 5.09043 2.67995 5.18674C2.67992 5.25332 2.6627 5.31877 2.62995 5.37674C2.33036 5.90167 2.09638 6.46142 1.93329 7.04341C1.91593 7.12461 1.87153 7.19752 1.80734 7.25021C1.74315 7.30289 1.66298 7.33222 1.57995 7.33341C1.36676 7.33299 1.16066 7.40998 0.999952 7.55007C0.840722 7.68925 0.739596 7.88318 0.716619 8.09341C0.649962 8.69602 0.649962 9.30413 0.716619 9.90674C0.741299 10.1177 0.843143 10.312 1.00254 10.4523C1.16193 10.5926 1.36761 10.669 1.57995 10.6667C1.66117 10.6672 1.73994 10.6946 1.80389 10.7447C1.86784 10.7948 1.91335 10.8647 1.93329 10.9434C2.09638 11.5254 2.33036 12.0851 2.62995 12.6101C2.67152 12.6802 2.68851 12.7622 2.67825 12.8431C2.66799 12.924 2.63105 12.9992 2.57329 13.0567C2.49313 13.141 2.4306 13.2404 2.38939 13.3492C2.34818 13.458 2.3291 13.5738 2.33329 13.6901C2.33343 13.8813 2.39802 14.0668 2.51662 14.2167C2.68662 14.4267 2.84995 14.6267 3.05329 14.8201L3.19662 14.9634C3.38995 15.1534 3.58995 15.3301 3.79995 15.5001C3.96707 15.63 4.17595 15.6943 4.38719 15.6807C4.59842 15.6672 4.79742 15.5769 4.94662 15.4267C5.01466 15.3586 5.10697 15.3202 5.20329 15.3201C5.26987 15.3201 5.33531 15.3373 5.39329 15.3701C5.91822 15.6697 6.47796 15.9036 7.05995 16.0667C7.13807 16.0873 7.20721 16.1331 7.25664 16.197C7.30607 16.2609 7.33301 16.3393 7.33329 16.4201C7.33287 16.6333 7.40986 16.8394 7.54995 17.0001C7.68913 17.1593 7.88306 17.2604 8.09329 17.2834C8.69589 17.3501 9.30401 17.3501 9.90662 17.2834C10.1175 17.2587 10.3119 17.1569 10.4522 16.9975C10.5925 16.8381 10.6689 16.6324 10.6666 16.4201C10.6671 16.3389 10.6945 16.2601 10.7446 16.1961C10.7947 16.1322 10.8645 16.0867 10.9433 16.0667C11.5253 15.9036 12.085 15.6697 12.61 15.3701C12.6801 15.3285 12.7621 15.3115 12.843 15.3218C12.9239 15.332 12.9991 15.369 13.0566 15.4267C13.2221 15.5896 13.4445 15.6817 13.6766 15.6834C13.868 15.6843 14.0539 15.6196 14.2033 15.5001C14.4133 15.3301 14.6133 15.1667 14.8066 14.9634L14.95 14.8201C15.14 14.6267 15.3166 14.4267 15.4866 14.2167C15.6172 14.0499 15.6819 13.8409 15.6684 13.6294C15.6549 13.418 15.5641 13.2189 15.4133 13.0701C15.3451 13.002 15.3068 12.9097 15.3066 12.8134C15.3067 12.7468 15.3239 12.6814 15.3566 12.6234C15.6562 12.0985 15.8902 11.5387 16.0533 10.9567C16.0711 10.8733 16.1175 10.7987 16.1844 10.7457C16.2513 10.6928 16.3346 10.6649 16.42 10.6667C16.6331 10.6672 16.8392 10.5902 17 10.4501C17.1592 10.3109 17.2603 10.117 17.2833 9.90674C17.3499 9.30413 17.3499 8.69602 17.2833 8.09341ZM8.99995 15.0001C7.81326 15.0001 6.65323 14.6482 5.66653 13.9889C4.67984 13.3296 3.9108 12.3925 3.45668 11.2962C3.00255 10.1998 2.88373 8.99342 3.11524 7.82953C3.34675 6.66565 3.9182 5.59655 4.75731 4.75743C5.59643 3.91832 6.66552 3.34687 7.82941 3.11536C8.9933 2.88385 10.1997 3.00267 11.2961 3.4568C12.3924 3.91092 13.3295 4.67996 13.9888 5.66665C14.6481 6.65335 15 7.81339 15 9.00007C15 10.5914 14.3678 12.1175 13.2426 13.2427C12.1174 14.3679 10.5913 15.0001 8.99995 15.0001Z" />
<path d="M8.99996 6.33342C9.52738 6.33342 10.0429 6.48981 10.4815 6.78283C10.92 7.07585 11.2618 7.49232 11.4636 7.97959C11.6655 8.46686 11.7183 9.00304 11.6154 9.52032C11.5125 10.0376 11.2585 10.5128 10.8856 10.8857C10.5126 11.2586 10.0375 11.5126 9.5202 11.6155C9.00292 11.7184 8.46674 11.6656 7.97947 11.4638C7.4922 11.2619 7.07573 10.9201 6.78271 10.4816C6.48969 10.0431 6.33329 9.5275 6.33329 9.00008C6.33329 8.29284 6.61424 7.61456 7.11434 7.11446C7.61444 6.61437 8.29272 6.33342 8.99996 6.33342ZM8.99996 4.66675C8.14291 4.66675 7.3051 4.92089 6.59249 5.39705C5.87988 5.8732 5.32446 6.54997 4.99648 7.34179C4.6685 8.1336 4.58269 9.00489 4.74989 9.84547C4.91709 10.6861 5.3298 11.4582 5.93583 12.0642C6.54186 12.6702 7.31398 13.083 8.15457 13.2502C8.99515 13.4174 9.86644 13.3315 10.6583 13.0036C11.4501 12.6756 12.1268 12.1202 12.603 11.4076C13.0791 10.6949 13.3333 9.85713 13.3333 9.00008C13.3333 8.43102 13.2212 7.86753 13.0034 7.34179C12.7857 6.81604 12.4665 6.33834 12.0641 5.93595C11.6617 5.53357 11.184 5.21437 10.6583 4.9966C10.1325 4.77883 9.56902 4.66675 8.99996 4.66675Z" />
</g>
</g>
</svg>
