<svg width="30" height="30" viewBox="0 0 30 30" fill="none" xmlns="http://www.w3.org/2000/svg">
<g id="&#236;&#149;&#132;&#236;&#157;&#180;&#236;&#189;&#152;_&#234;&#178;&#133;&#236;&#154;&#176;">
<path id="Vector" d="M7.60835 18.6243C8.67432 18.6183 9.69959 18.2143 10.4831 17.4915L18.1086 21.8524C18.0114 22.1889 17.9622 22.5375 17.9624 22.8878C17.9546 23.8763 18.2876 24.8374 18.9054 25.6091C19.5233 26.3809 20.3882 26.9162 21.3545 27.1249C22.3208 27.3336 23.3295 27.2029 24.2108 26.755C25.092 26.307 25.792 25.569 26.1929 24.6654C26.5937 23.7617 26.6709 22.7475 26.4115 21.7935C26.1521 20.8396 25.572 20.0041 24.7687 19.4279C23.9654 18.8516 22.9881 18.5698 22.0014 18.6298C21.0146 18.6897 20.0786 19.0879 19.3511 19.7572L11.7256 15.3963C11.8176 15.0961 11.8668 14.7845 11.8718 14.4705L19.3632 10.1827C20.0869 10.8367 21.0134 11.2219 21.9873 11.2738C22.9613 11.3257 23.9235 11.0412 24.7125 10.4678C25.5016 9.89453 26.0695 9.06734 26.321 8.125C26.5726 7.18265 26.4924 6.18247 26.094 5.2922C25.6957 4.40193 25.0033 3.67571 24.133 3.23534C23.2628 2.79497 22.2675 2.66723 21.3143 2.87355C20.361 3.07987 19.5077 3.6077 18.8974 4.36851C18.2871 5.12933 17.957 6.07685 17.9624 7.05217C17.9665 7.40215 18.0156 7.75014 18.1086 8.08758L11.1775 12.0465C10.7758 11.4252 10.2195 10.9191 9.56305 10.5779C8.90662 10.2367 8.17271 10.0723 7.43346 10.1006C6.69421 10.129 5.97506 10.3492 5.3467 10.7397C4.71834 11.1302 4.2024 11.6774 3.84958 12.3276C3.49676 12.9779 3.31922 13.7087 3.33439 14.4484C3.34957 15.188 3.55695 15.911 3.93614 16.5462C4.31533 17.1814 4.85329 17.707 5.49714 18.0714C6.14098 18.4358 6.86856 18.6263 7.60835 18.6243ZM22.2258 21.0606C22.5872 21.0606 22.9405 21.1677 23.241 21.3685C23.5414 21.5693 23.7756 21.8547 23.9139 22.1885C24.0522 22.5224 24.0884 22.8898 24.0179 23.2442C23.9474 23.5987 23.7734 23.9242 23.5178 24.1798C23.2623 24.4353 22.9367 24.6093 22.5823 24.6798C22.2278 24.7503 21.8605 24.7142 21.5266 24.5759C21.1927 24.4376 20.9073 24.2034 20.7066 23.9029C20.5058 23.6024 20.3986 23.2491 20.3986 22.8878C20.3986 22.4032 20.5911 21.9384 20.9338 21.5958C21.2765 21.2531 21.7412 21.0606 22.2258 21.0606ZM22.2258 5.22499C22.5872 5.22499 22.9405 5.33215 23.241 5.53292C23.5414 5.7337 23.7756 6.01906 23.9139 6.35294C24.0522 6.68681 24.0884 7.0542 24.0179 7.40864C23.9474 7.76308 23.7734 8.08865 23.5178 8.34419C23.2623 8.59972 22.9367 8.77374 22.5823 8.84425C22.2278 8.91475 21.8605 8.87856 21.5266 8.74027C21.1927 8.60197 20.9073 8.36778 20.7066 8.0673C20.5058 7.76682 20.3986 7.41355 20.3986 7.05217C20.3986 6.56757 20.5911 6.10282 20.9338 5.76016C21.2765 5.41749 21.7412 5.22499 22.2258 5.22499ZM7.60835 12.5337C7.96973 12.5337 8.323 12.6409 8.62348 12.8417C8.92396 13.0424 9.15815 13.3278 9.29645 13.6617C9.43474 13.9955 9.47093 14.3629 9.40043 14.7174C9.32992 15.0718 9.1559 15.3974 8.90037 15.6529C8.64483 15.9085 8.31926 16.0825 7.96482 16.153C7.61038 16.2235 7.24299 16.1873 6.90912 16.049C6.57524 15.9107 6.28988 15.6765 6.0891 15.376C5.88833 15.0756 5.78117 14.7223 5.78117 14.3609C5.78117 13.8763 5.97367 13.4116 6.31634 13.0689C6.659 12.7262 7.12375 12.5337 7.60835 12.5337Z" fill="#363C60"/>
</g>
</svg>
