<svg width="34" height="35" viewBox="0 0 34 35" fill="none" xmlns="http://www.w3.org/2000/svg">
<g id="&#236;&#149;&#132;&#236;&#157;&#180;&#236;&#189;&#152;_&#237;&#153;&#149;&#236;&#132;&#177;&#234;&#184;&#176;">
<g id="Vector">
<path d="M23.5796 3.64818C23.251 3.65551 22.9324 3.76317 22.6667 3.9567C16.4648 8.38929 8.81483 9.31485 4.2878 9.31485H2.85854C2.43548 9.31485 2.02965 9.48247 1.72991 9.78103C1.43017 10.0796 1.26094 10.4848 1.25928 10.9078V17.563C1.25928 17.9871 1.42777 18.3939 1.72769 18.6938C2.02761 18.9938 2.43439 19.1623 2.85854 19.1623H2.93409C3.34335 19.1623 3.79668 19.1308 4.2878 19.1308H4.35076L5.41483 29.463C5.48474 30.1226 5.79601 30.7331 6.28882 31.1771C6.78162 31.6211 7.42115 31.8672 8.08446 31.8682H12.1393C12.5142 31.8684 12.885 31.7899 13.2276 31.6377C13.5702 31.4854 13.8771 31.2629 14.1282 30.9845C14.3793 30.7061 14.5691 30.378 14.6853 30.0215C14.8014 29.665 14.8414 29.2881 14.8026 28.9152L13.9337 20.4467C17.0598 21.2794 20.0155 22.6539 22.6667 24.5078C22.9406 24.7094 23.2711 24.8195 23.6111 24.8226C24.0309 24.816 24.4312 24.6446 24.7257 24.3454C25.0202 24.0462 25.1853 23.6432 25.1852 23.2234V5.24744C25.186 5.03666 25.145 4.8278 25.0646 4.63298C24.9841 4.43816 24.8658 4.26124 24.7164 4.11249C24.5671 3.96373 24.3897 3.8461 24.1946 3.7664C23.9994 3.6867 23.7904 3.64651 23.5796 3.64818ZM11.6167 28.7137H8.46854L7.55557 19.2819C8.55039 19.3763 9.61446 19.5086 10.7037 19.71L11.6167 28.7137ZM22.0371 20.3963C15.1741 16.4926 7.66261 15.9889 4.40743 15.9889V12.463C7.66261 12.463 15.1741 11.9467 22.0371 8.05559V20.3963Z" />
<path d="M27.0741 10.4607C27.0746 10.7701 27.1663 11.0724 27.3376 11.3299C27.5089 11.5875 27.7523 11.7889 28.0374 11.9089C28.4974 12.0996 28.8906 12.4224 29.1672 12.8365C29.4437 13.2506 29.5914 13.7374 29.5914 14.2354C29.5914 14.7333 29.4437 15.2201 29.1672 15.6342C28.8906 16.0483 28.4974 16.3711 28.0374 16.5618C27.7513 16.6805 27.507 16.8815 27.3355 17.1394C27.1639 17.3972 27.073 17.7003 27.0741 18.01C27.0722 18.2657 27.1329 18.5181 27.2509 18.745C27.369 18.9719 27.5407 19.1665 27.7512 19.3118C27.9617 19.4571 28.2046 19.5487 28.4586 19.5786C28.7126 19.6085 28.9701 19.5758 29.2085 19.4833C30.2537 19.0594 31.1485 18.3332 31.7786 17.3977C32.4086 16.4623 32.7452 15.3601 32.7452 14.2322C32.7452 13.1044 32.4086 12.0022 31.7786 11.0667C31.1485 10.1312 30.2537 9.40504 29.2085 8.9811C28.9695 8.89004 28.7119 8.85859 28.458 8.88949C28.2041 8.92038 27.9616 9.01268 27.7514 9.15839C27.5412 9.30411 27.3696 9.49886 27.2516 9.72578C27.1336 9.9527 27.0727 10.205 27.0741 10.4607Z" />
</g>
</g>
</svg>
