<svg width="54" height="54" viewBox="0 0 54 54" fill="none" xmlns="http://www.w3.org/2000/svg">
<g id="&#236;&#149;&#132;&#236;&#157;&#180;&#236;&#189;&#152;_&#236;&#167;&#128;&#234;&#176;&#145;">
<g id="Vector">
<path d="M49 28V23C49 20.8783 48.1571 18.8434 46.6569 17.3431C45.1566 15.8429 43.1217 15 41 15H10C9.59397 15.0004 9.19208 14.9185 8.81867 14.759C8.44525 14.5996 8.10809 14.366 7.82761 14.0724C7.54712 13.7788 7.32915 13.4314 7.18689 13.0511C7.04463 12.6708 6.98105 12.2656 7 11.86C7.05621 11.0731 7.4122 10.3378 7.99456 9.80571C8.57693 9.27358 9.34127 8.98519 10.13 9H41C41.5448 9.00337 42.0783 9.15502 42.5434 9.43866C43.0085 9.7223 43.3876 10.1272 43.64 10.61C43.945 11.2001 44.4719 11.6449 45.1049 11.8465C45.7378 12.0481 46.4249 11.99 47.015 11.685C47.6051 11.38 48.0499 10.8531 48.2515 10.2201C48.4531 9.5872 48.395 8.90011 48.09 8.31C47.4152 7.01201 46.3975 5.92389 45.1474 5.16399C43.8974 4.40408 42.4629 4.00149 41 4H10C7.87827 4 5.84344 4.84285 4.34315 6.34315C2.84285 7.84344 2 9.87827 2 12V42C2 44.1217 2.84285 46.1566 4.34315 47.6569C5.84344 49.1571 7.87827 50 10 50H41C43.1217 50 45.1566 49.1571 46.6569 47.6569C48.1571 46.1566 49 44.1217 49 42V37H44V42C44 42.7957 43.6839 43.5587 43.1213 44.1213C42.5587 44.6839 41.7957 45 41 45H10C9.20435 45 8.44129 44.6839 7.87868 44.1213C7.31607 43.5587 7 42.7957 7 42V19.42C7.95345 19.8043 8.97202 20.0012 10 20H41C41.7957 20 42.5587 20.3161 43.1213 20.8787C43.6839 21.4413 44 22.2044 44 23V28H49Z" />
<path d="M47 30V35H34V30H47ZM47.71 25H33.29C32.1522 25 31.061 25.452 30.2565 26.2565C29.452 27.061 29 28.1522 29 29.29V35.71C29 36.8478 29.452 37.939 30.2565 38.7435C31.061 39.548 32.1522 40 33.29 40H47.71C48.8478 40 49.939 39.548 50.7435 38.7435C51.548 37.939 52 36.8478 52 35.71V29.29C52 28.1522 51.548 27.061 50.7435 26.2565C49.939 25.452 48.8478 25 47.71 25Z" fill="#343434"/>
</g>
</g>
</svg>
