<svg width="150" height="150" viewBox="0 0 150 150" fill="none" xmlns="http://www.w3.org/2000/svg">
<g id="Group 5">
<rect id="Rectangle 113" x="4.6875" y="4.6875" width="140.625" height="140.625" fill="#D9D9D9"/>
<g id="Vector">
<path d="M9.375 0H142.187V4.6875H9.375V0Z" fill="#242A4B"/>
<path d="M9.375 145.312H140.625V150H9.375V145.312Z" fill="#242A4B"/>
<path d="M5.73712e-06 140.625L0 9.375H4.68751L4.68751 140.625H5.73712e-06Z" fill="#242A4B"/>
<path d="M145.312 140.625V9.375H150V140.625H145.312Z" fill="#242A4B"/>
<path d="M9.375 14.0625V9.375H14.0625V14.0625H9.375Z" fill="#242A4B"/>
<path d="M9.375 140.625V135.938H14.0625V140.625H9.375Z" fill="#242A4B"/>
<path d="M4.68751 145.312L4.68751 140.625H9.375V145.312H4.68751Z" fill="#242A4B"/>
<path d="M4.68751 9.375L4.6875 4.6875H9.375V9.375H4.68751Z" fill="#242A4B"/>
<path d="M135.937 14.0625V9.375H140.625V14.0625H135.937Z" fill="#242A4B"/>
<path d="M140.625 9.375V4.6875L145.312 4.6875V9.375H140.625Z" fill="#242A4B"/>
<path d="M135.937 140.625V135.938H140.625V140.625H135.937Z" fill="#242A4B"/>
<path d="M140.625 145.312V140.625H145.312V145.312H140.625Z" fill="#242A4B"/>
</g>
</g>
</svg>
