<svg width="200" height="84" viewBox="0 0 200 84" fill="none" xmlns="http://www.w3.org/2000/svg">
<g id="Vector">
<path d="M104.305 16.4217V43.0854H132.969L133.169 42.4772L134.56 38.2847H143.732L145.118 42.4772L145.322 43.0854H155.88L158.671 37.0822L158.22 35.8333L146.755 4.32711H135.532L135.308 4.93532L128.49 23.6088H123.458L122.611 28.6509H114.988V4.32711H105.449H99.7512L99.7605 11.8856L104.305 16.4217Z" fill="#467CFD"/>
<path d="M198.414 61.4199C197.861 60.7142 197.247 60.0874 196.572 59.5489L199.647 55.0082L199.6 54.0332C199.442 50.7275 198.163 48.1136 195.8 46.2704C193.489 44.469 190.396 43.5543 186.6 43.5543C184.265 43.5543 182.135 43.949 180.27 44.7197C178.354 45.5183 176.833 46.7115 175.74 48.2668C175.126 49.1397 174.689 50.1193 174.415 51.1871C174.112 51.6746 173.833 52.2178 173.568 52.7657V44.0325H146.685L145.341 48.5918V44.0325H134.876L133.216 51.5632V55.6443H126.244V44.0325H111.537L111.132 49.5575C110.356 48.485 109.421 47.5286 108.304 46.7115C105.607 44.729 102.17 43.7261 98.0954 43.7261C94.8443 43.7261 91.9281 44.4365 89.4305 45.8386C86.9143 47.25 84.9422 49.2464 83.5608 51.7675C82.6492 53.4343 82.0446 55.2728 81.733 57.2507L81.7934 52.4453V51.5632L80.8818 44.0325H56.8219L57.3568 43.1968C59.3382 42.9183 61.2218 42.2822 62.9567 41.3165C65.3985 39.9515 67.3566 38.0294 68.7658 35.6058C69.6588 34.0783 70.2728 32.4023 70.603 30.6101L71.0681 31.0744L69.3286 35.838L68.8728 37.0822L70.3518 43.0854H80.8725L81.0725 42.4772L82.4585 38.2847H91.6304L93.0164 42.4772L93.2164 43.0854H103.779L103.97 37.0822L103.519 35.838L92.2769 4.93997L92.0537 4.32711H80.8307L80.6074 4.93997L73.8262 23.5113L73.282 20.6141L72.0634 19.8341L69.2635 18.0374C68.9658 15.8367 68.2728 13.7938 67.2031 11.9506C65.7194 9.40636 63.6729 7.39602 61.1242 5.97532C59.3056 4.96318 57.3242 4.30854 55.222 4.01604L52.6406 0L50.0546 4.02533C47.9942 4.31783 46.0315 4.97247 44.2269 5.97532C41.9525 7.23352 40.0781 8.95601 38.6363 11.1056L35.8922 4.32711H23.6274L23.3483 4.71247L18.4135 11.5467L15.4136 4.32711H0L4.94872 9.26708V11.8856H4.75338L4.94872 12.0806V32.1376L1.58601 35.4944L0 37.0822L4.75803 43.0854H19.4368V32.0587L27.0691 42.714L27.3342 43.0854H39.4735L36.4503 37.0822L35.3341 35.5965L28.1854 26.0648L32.1155 20.8834L35.2178 27.3973L36.3805 28.1402L38.0968 29.2405C38.4503 29.8394 38.8363 30.4059 39.2502 30.9444C39.5991 32.6112 40.1944 34.1758 41.0363 35.6058C42.4641 38.0294 44.4222 39.9469 46.864 41.3119C48.5849 42.2729 50.4546 42.9043 52.4174 43.1876L52.9569 44.0279H52.943L55.1801 51.5586L56.8824 53.2578V59.326L47.1338 44.4458L46.8594 44.0233H36.8224V46.3215L35.8922 44.0233H23.6274L23.3483 44.4086L18.9112 50.5604L15.4182 44.0233H0L4.94872 48.9632V51.5539H4.75338L4.94872 51.7489V71.8384L1.58601 75.1952L0 76.7877L4.75803 82.7583H19.4368V71.7363L23.7064 78.6495L27.3342 82.763H39.4735L36.4503 76.7923L35.3341 75.3066L28.1714 65.761L36.8224 54.3582V76.7877L39.827 82.7583H53.6453L51.329 76.7877L49.1989 74.6613L49.7942 68.3656L59.0823 82.3637L59.3428 82.7583H68.8961V52.3896L70.3984 53.8893V76.7877L71.8076 82.7583H86.0352L85.3562 76.9316C86.5654 78.5798 88.0956 79.9309 89.9328 80.9569C92.3281 82.2894 95.1094 82.9673 98.207 82.9673C100.751 82.9673 103.058 82.4984 105.063 81.5698C107.058 80.6459 108.737 79.448 110.049 78.0041C111.351 76.5695 112.356 75.0095 113.035 73.3613L113.1 73.1988V73.0223L113.755 66.7499V65.3013L115.007 66.5503L115.421 73.4727L112.1 76.7877L111.523 82.7583H124.974L126.22 76.7877V70.947H133.192V82.7583H143.155L145.313 76.7877V62.2138L147.685 59.846H152.215V82.7583H162.178L165.285 76.7877V59.846H166.791L170.991 64.0385C171.238 64.7767 171.577 65.4453 172.024 66.0256C172.526 66.6849 173.08 67.2653 173.684 67.762L170.396 71.8477L170.447 72.7809C170.629 76.0773 171.945 78.6494 174.359 80.4369C176.708 82.1734 179.726 83.0508 183.331 83.0508C185.712 83.0508 187.824 82.6144 189.596 81.7509C191.4 80.8734 196.177 75.093 197.14 73.5656C197.14 73.5656 197.14 73.5656 197.14 73.5609C197.637 73.0595 198.07 72.5116 198.442 71.922C199.456 70.3202 199.967 68.4863 199.967 66.476C199.991 64.4656 199.46 62.7617 198.414 61.4199ZM36.0085 18.0327L32.6458 20.187L36.8177 14.6899C36.4364 15.7577 36.1666 16.872 36.0085 18.0327ZM52.6546 27.5505C51.1988 27.5505 50.0081 27.2209 49.05 26.557C49.1709 24.8391 49.6919 23.4555 50.5942 22.4341C51.6267 21.2734 53.036 20.707 54.9057 20.707C56.4964 20.707 57.7568 21.1295 58.7428 21.9931C58.5428 23.502 58.0173 24.7509 57.1615 25.7166C56.0638 26.947 54.5894 27.5505 52.6546 27.5505ZM94.0118 62.3021C94.528 61.7217 95.1327 61.2946 95.8396 61.0114V67.0749C95.0443 66.7777 94.3699 66.3506 93.8211 65.7749C93.435 65.371 93.1188 64.8928 92.8583 64.3542C93.1188 63.5603 93.5002 62.8778 94.0118 62.3021ZM81.6493 62.9567C81.6539 62.9753 81.6539 62.9938 81.6586 63.0124C81.6493 63.1656 81.6446 63.3281 81.6446 63.5046L81.6493 62.9567ZM83.7608 75.2045L81.519 72.9666L81.64 63.4999C81.64 66.5595 83.0213 72.9202 84.3283 75.3066C84.5608 75.7291 84.812 76.1284 85.0817 76.5184L83.7608 75.2045ZM109.402 77.4098C108.16 78.7748 106.593 79.8937 104.7 80.7712C102.802 81.6487 100.644 82.0851 98.221 82.0851C95.2675 82.0851 92.6537 81.4537 90.3793 80.1862C88.1049 78.9187 86.3515 77.1545 85.1096 74.8841C84.9562 74.6009 84.8073 74.313 84.6724 74.0206C84.8073 74.313 84.9515 74.6009 85.1096 74.8841C86.3515 77.1545 88.1049 78.9187 90.3793 80.1862C92.649 81.4537 95.2629 82.0851 98.221 82.0851C100.644 82.0851 102.807 81.6487 104.7 80.7712C106.598 79.8937 108.165 78.7748 109.402 77.4098ZM193.033 77.6605C192.154 79.0534 190.884 80.1491 189.228 80.9569C187.568 81.7648 185.61 82.1687 183.354 82.1687C179.926 82.1687 177.107 81.3562 174.908 79.7266C174.703 79.5734 174.503 79.4155 174.317 79.2484C174.508 79.4155 174.703 79.5734 174.908 79.7266C177.107 81.3562 179.926 82.1687 183.354 82.1687C185.61 82.1687 187.568 81.7648 189.228 80.9569C190.884 80.1491 192.154 79.0534 193.033 77.6605C193.144 77.4887 193.247 77.3077 193.34 77.1312C193.247 77.3077 193.14 77.4841 193.033 77.6605ZM195.693 73.6352C196.07 73.3334 196.414 73.0131 196.73 72.6695C196.409 73.0084 196.065 73.3334 195.693 73.6352ZM197.679 71.4345C197.549 71.6434 197.405 71.8477 197.256 72.0427C197.405 71.8431 197.549 71.6434 197.679 71.4345Z" fill="#467CFD"/>
<path d="M34.0225 5.25568H24.1018L14.4834 18.5759V5.25568H2.24646L5.87893 8.88172V32.523L2.24646 36.1537H14.4834V22.6106L24.1901 36.1537H34.5945L22.6506 20.2427L34.0225 5.25568Z" fill="white"/>
<path d="M34.0225 44.9611H24.1018L14.4834 58.286V44.9611H2.24646L5.87893 48.5918V72.2331L2.24646 75.8591H5.87893H14.4834V62.316L24.1901 75.8591H34.5945L22.6506 59.9528L34.0225 44.9611Z" fill="white"/>
<path d="M79.9423 44.9611H71.3379H68.7286L71.3379 47.5657V75.8591H79.9423H83.105L79.9423 72.7066V44.9611Z" fill="white"/>
<path d="M96.7698 64.4192H105.421C104.132 67.1352 101.979 68.4956 98.9651 68.4956C96.4164 68.4956 94.4815 67.8038 93.1467 66.4156C91.8165 65.0274 91.1514 63.0031 91.1514 60.3474C91.1514 57.9796 91.7746 56.0946 93.0164 54.6925C94.2583 53.2903 95.9652 52.5893 98.1326 52.5893C99.3047 52.5893 100.319 52.8075 101.184 53.2486C102.049 53.685 102.728 54.3164 103.226 55.1335H112.49C111.876 51.8929 110.295 49.3347 107.751 47.4636C105.202 45.5925 101.984 44.6593 98.0907 44.6593C94.9885 44.6593 92.2537 45.3233 89.8816 46.6511C87.5096 47.979 85.6724 49.8361 84.3701 52.2178C83.0678 54.5996 82.4167 57.311 82.4167 60.3474C82.4167 63.4163 83.0678 66.1417 84.3701 68.5188C85.6724 70.9006 87.5142 72.7531 89.9002 74.0856C92.2862 75.4134 95.0303 76.0773 98.1326 76.0773C100.677 76.0773 102.946 75.6177 104.937 74.6984C106.928 73.7791 108.574 72.6045 109.877 71.1699C111.179 69.7399 112.165 68.2031 112.839 66.5688V58.2442H96.7698V64.4192Z" fill="white"/>
<path d="M135.797 56.5775H125.304V44.9611H113.774L116.7 47.8861V56.4614H113.774L116.7 59.3817V73.5191L114.355 75.8591H116.7H125.304V63.4581H135.797V75.8591H144.401V44.9611H135.797V56.5775Z" fill="white"/>
<path d="M147.606 51.8V53.8893L149.703 51.8H155.773V75.8591H164.378V51.8H170.536L172.633 53.8893V51.8V44.9611H147.606V51.8Z" fill="white"/>
<path d="M197.679 61.991C196.758 60.8071 195.661 59.8878 194.386 59.2285C193.112 58.5692 191.493 57.9053 189.535 57.2321C188.219 56.7632 187.224 56.3778 186.549 56.0714C185.875 55.765 185.312 55.3982 184.861 54.9757C184.405 54.5532 184.182 54.0471 184.182 53.4621C184.182 52.7611 184.386 52.2225 184.796 51.8418C185.205 51.4611 185.731 51.2707 186.377 51.2707C187.224 51.2707 187.921 51.5029 188.461 51.9718C189 52.4407 189.289 53.1418 189.317 54.075H198.67C198.526 51.0386 197.377 48.6754 195.223 46.9993C193.07 45.3186 190.196 44.4783 186.596 44.4783C184.372 44.4783 182.382 44.845 180.624 45.574C178.866 46.3029 177.494 47.38 176.498 48.7961C175.503 50.2122 175.005 51.9161 175.005 53.9032C175.005 55.8625 175.466 57.4457 176.387 58.6574C177.307 59.8692 178.391 60.7885 179.633 61.4199C180.875 62.0467 182.507 62.6967 184.531 63.3699C186.433 63.9828 187.81 64.5399 188.656 65.0367C189.503 65.5335 189.93 66.2345 189.93 67.1399C189.93 67.841 189.675 68.3888 189.163 68.7834C188.651 69.1781 188 69.3731 187.21 69.3731C186.331 69.3731 185.614 69.127 185.056 68.6302C184.498 68.1335 184.177 67.3442 184.089 66.2624H174.912C175.089 69.4474 176.331 71.8941 178.642 73.6027C180.954 75.3113 183.912 76.1655 187.512 76.1655C189.884 76.1655 191.94 75.743 193.679 74.8934C195.419 74.0484 196.754 72.8923 197.674 71.4299C198.595 69.9674 199.056 68.3192 199.056 66.476C199.06 64.6699 198.6 63.1703 197.679 61.991Z" fill="white"/>
<path d="M55.1941 44.9611L57.8173 47.5843V62.4506L46.3571 44.9611H37.7526V75.8591H49.0872L46.3571 73.1384V58.5924L57.8173 75.8591H66.4217V44.9611H55.1941Z" fill="white"/>
<path d="M105.449 36.1537H123.672V29.5794H114.058V5.25568H101.998L105.449 8.7053V36.1537Z" fill="white"/>
<path d="M73.5192 27.0537L70.1984 36.1537H79.2447L80.9144 31.1116H91.8909L93.5606 36.1537H102.649L91.4118 5.25568H81.4911L74.4494 24.5373H71.0123L73.5192 27.0537ZM86.398 14.546L89.7328 24.5373H83.105L86.398 14.546Z" fill="white"/>
<path d="M68.3938 18.5806C68.1472 16.3381 67.4868 14.2813 66.3985 12.4149C64.9938 10.0053 63.0823 8.12959 60.6684 6.78317C58.8219 5.75246 56.8219 5.12104 54.6731 4.87961L52.636 1.7132L50.5942 4.88425C48.4826 5.13032 46.5059 5.76174 44.6641 6.77852C42.2362 8.12494 40.3107 10.0006 38.8921 12.4103C37.7945 14.2767 37.1247 16.3335 36.8782 18.5713L33.7062 20.6049L36.8829 22.6384C37.134 24.8623 37.8038 26.9005 38.8921 28.753C40.3107 31.1626 42.2362 33.0476 44.6641 34.408C46.5059 35.4387 48.4826 36.0747 50.5895 36.3255L52.6313 39.4965L54.6685 36.3301C56.794 36.084 58.7893 35.448 60.6404 34.408C63.0683 33.0476 64.9845 31.1626 66.3938 28.753C67.4728 26.9005 68.1333 24.8623 68.3845 22.6384L71.5565 20.6049L68.3938 18.5806ZM57.8591 26.3295C56.5847 27.7594 54.8499 28.4791 52.6546 28.4791C50.4314 28.4791 48.6872 27.7734 47.4315 26.3527C46.171 24.9366 45.5431 23.0145 45.5431 20.5909C45.5431 18.1349 46.171 16.2035 47.4315 14.7828C48.6872 13.3667 50.4314 12.6563 52.6546 12.6563C54.8499 12.6563 56.5847 13.3667 57.8591 14.7828C59.1335 16.1988 59.7707 18.1349 59.7707 20.5909C59.7707 22.9866 59.1335 24.8995 57.8591 26.3295Z" fill="white"/>
<path d="M146.104 5.25568H136.183L129.141 24.5373H125.704L128.22 27.0491L124.899 36.149H133.946L135.615 31.1069H146.592L148.262 36.149H157.35L146.104 5.25568ZM137.806 24.5373L141.099 14.546L144.434 24.5373H137.806Z" fill="white"/>
<path d="M34.0225 5.25568L22.6506 20.2427L34.5899 36.149H24.1901L14.4834 22.6106V36.1537H2.24646L5.87893 32.5276V8.88172L2.24646 5.25568H14.4834V18.5806L24.0971 5.25568H34.0225ZM35.8922 4.32711H23.6274L23.3483 4.71247L15.4136 15.702V4.32711H0L4.94872 9.26708V32.1376L1.58601 35.4944L0 37.0822H15.4136V25.503L23.7064 37.0822H36.4503L35.3341 35.5965L23.818 20.2474L34.7666 5.81746L35.8922 4.32711Z" fill="#467CFD"/>
<path d="M34.0225 44.9611L22.6506 59.9528L34.5899 75.8591L24.1901 75.8591L14.488 62.316V75.8591L2.24646 75.8591L5.87893 72.2331V48.5918L2.24646 44.9658H14.4834V58.2907L24.0971 44.9658H34.0225M35.8922 44.0325H23.6274L23.3483 44.4179L15.4182 55.4075V44.0325H0L4.94872 48.9725V71.8431L1.58601 75.1998L0 76.7877L15.4136 76.7877V65.2131L23.7064 76.7923L36.4503 76.7923L35.3341 75.3066L23.8134 59.9574L34.762 45.5275L35.8922 44.0325Z" fill="#467CFD"/>
<path d="M79.9423 44.9611V72.702L83.105 75.8591H79.9423H71.3379V47.5657L68.7286 44.9611H71.3379H79.9423ZM80.8725 44.0325H66.4822L70.403 47.9464V76.783H85.3468L80.8725 72.3166V44.0325Z" fill="#467CFD"/>
<path d="M98.0861 44.6547C101.979 44.6547 105.198 45.5879 107.746 47.459C110.29 49.33 111.872 51.8836 112.486 55.1289H103.221C102.723 54.3118 102.044 53.685 101.179 53.2439C100.314 52.8075 99.3 52.5846 98.1279 52.5846C95.9606 52.5846 94.2583 53.2857 93.0118 54.6878C91.7653 56.09 91.1467 57.9749 91.1467 60.3428C91.1467 63.0031 91.8118 65.0228 93.142 66.411C94.4722 67.7992 96.4117 68.4909 98.9605 68.4909C101.974 68.4909 104.128 67.1306 105.416 64.4145H96.7652V58.2349H112.835V66.5688C112.16 68.2077 111.174 69.7399 109.872 71.1699C108.57 72.5999 106.923 73.7791 104.932 74.6984C102.942 75.6177 100.672 76.0773 98.1279 76.0773C95.0257 76.0773 92.2816 75.4134 89.8956 74.0856C87.5096 72.7577 85.6678 70.9006 84.3655 68.5188C83.0632 66.137 82.412 63.4117 82.412 60.3474C82.412 57.311 83.0632 54.5996 84.3655 52.2178C85.6678 49.8361 87.5049 47.9836 89.877 46.6511C92.249 45.3186 94.9838 44.6547 98.0861 44.6547ZM98.0861 43.7261C94.835 43.7261 91.9188 44.4365 89.4212 45.8386C86.905 47.25 84.9329 49.2464 83.5515 51.7675C82.1795 54.2746 81.4818 57.1625 81.4818 60.3428C81.4818 63.5556 82.1795 66.4527 83.5515 68.9599C84.9329 71.4856 86.9143 73.482 89.4444 74.8934C91.956 76.2955 94.8815 77.0059 98.1279 77.0059C100.798 77.0059 103.221 76.5138 105.323 75.5388C107.416 74.5684 109.179 73.3102 110.56 71.792C111.928 70.2877 112.983 68.6488 113.695 66.917L113.765 66.7452V57.3157H95.835V65.3524H103.779C102.649 66.8428 101.058 67.5717 98.9605 67.5717C96.6582 67.5717 94.9745 66.9867 93.8164 65.7749C92.663 64.5724 92.0769 62.7478 92.0769 60.3474C92.0769 58.2257 92.6257 56.531 93.7094 55.31C94.7792 54.1028 96.221 53.5178 98.1279 53.5178C99.1465 53.5178 100.03 53.7035 100.756 54.075C101.467 54.4371 102.012 54.9385 102.426 55.6164L102.695 56.0621H113.602L113.393 54.9618C112.737 51.4982 111.021 48.7218 108.291 46.7161C105.598 44.7336 102.16 43.7261 98.0861 43.7261Z" fill="#467CFD"/>
<path d="M144.401 44.9611V75.8591H135.797V63.4581H125.304V75.8591H116.7H114.355L116.7 73.5191V59.3817L113.774 56.4614H116.7V47.8861L113.774 44.9658H125.304V56.5775H135.797V44.9611H144.401ZM134.867 44.0325V55.6443H126.234V44.0325H111.528L115.769 48.2668V55.5282H111.528L115.769 59.7624V73.1291L112.114 76.7784H126.239V64.3867H134.871V76.7877H145.336V44.0325H134.867Z" fill="#467CFD"/>
<path d="M172.633 44.9611V51.8V53.8939L170.536 51.8H164.378V75.8591H155.773V51.8H149.703L147.606 53.8939V51.8V44.9611H172.633ZM173.563 44.0325H146.68V56.1364L150.09 52.7332H154.843V76.7923H165.308V52.7332H170.15L173.559 56.1364V44.0325H173.563Z" fill="#467CFD"/>
<path d="M186.591 44.4829C190.191 44.4829 193.065 45.3233 195.219 47.004C197.367 48.6847 198.516 51.0432 198.665 54.0796H189.312C189.284 53.1464 188.996 52.4453 188.456 51.9764C187.912 51.5075 187.219 51.2754 186.372 51.2754C185.731 51.2754 185.2 51.4657 184.791 51.8464C184.382 52.2271 184.177 52.7657 184.177 53.4668C184.177 54.0518 184.405 54.5578 184.856 54.9803C185.312 55.4028 185.875 55.7696 186.544 56.076C187.219 56.3825 188.214 56.7725 189.53 57.2367C191.493 57.91 193.107 58.5739 194.382 59.2332C195.656 59.8924 196.754 60.8117 197.674 61.9956C198.595 63.1796 199.056 64.6745 199.056 66.4899C199.056 68.3284 198.595 69.9813 197.674 71.4438C196.754 72.9063 195.419 74.0577 193.679 74.9073C191.94 75.757 189.884 76.1795 187.512 76.1795C183.912 76.1795 180.954 75.3252 178.642 73.6166C176.331 71.9081 175.084 69.4613 174.912 66.2763H184.089C184.177 67.3581 184.498 68.1474 185.056 68.6442C185.61 69.1409 186.331 69.387 187.21 69.387C188 69.387 188.651 69.192 189.163 68.7974C189.675 68.4027 189.93 67.8549 189.93 67.1538C189.93 66.2485 189.507 65.5474 188.656 65.0506C187.805 64.5538 186.433 63.9967 184.531 63.3838C182.512 62.7106 180.88 62.0606 179.633 61.4339C178.387 60.8071 177.307 59.8878 176.387 58.6714C175.466 57.4596 175.005 55.8764 175.005 53.9171C175.005 51.93 175.503 50.2307 176.498 48.81C177.494 47.394 178.87 46.3215 180.624 45.5879C182.377 44.845 184.368 44.4829 186.591 44.4829ZM186.591 43.5543C184.256 43.5543 182.126 43.949 180.261 44.7197C178.345 45.5183 176.824 46.7115 175.731 48.2668C174.628 49.8361 174.07 51.735 174.07 53.9032C174.07 56.0575 174.601 57.8496 175.642 59.2192C176.647 60.5378 177.847 61.5592 179.214 62.2464C180.489 62.8917 182.182 63.5649 184.233 64.2474C186.07 64.8417 187.396 65.371 188.186 65.8352C188.749 66.1649 189 66.5642 189 67.1352C189 67.5485 188.875 67.827 188.596 68.0452C188.247 68.3145 187.796 68.4445 187.21 68.4445C186.563 68.4445 186.061 68.2774 185.679 67.9384C185.307 67.6088 185.089 67.0192 185.019 66.1881L184.949 65.3338H173.935L173.991 66.3135C174.182 69.7724 175.563 72.4745 178.098 74.3502C180.563 76.1702 183.731 77.0941 187.521 77.0941C190.023 77.0941 192.237 76.6345 194.098 75.7291C195.991 74.8098 197.461 73.5284 198.474 71.9266C199.488 70.3249 200 68.491 200 66.4806C200 64.4656 199.47 62.7617 198.419 61.4199C197.419 60.1339 196.209 59.1217 194.819 58.4021C193.516 57.7289 191.842 57.0417 189.842 56.3546C188.572 55.9042 187.591 55.5235 186.94 55.2264C186.363 54.9618 185.875 54.6507 185.498 54.2978C185.233 54.0471 185.112 53.7918 185.112 53.4621C185.112 52.8168 185.349 52.5939 185.428 52.5196C185.665 52.3014 185.968 52.1993 186.377 52.1993C187 52.1993 187.484 52.3571 187.856 52.6728C188.196 52.9653 188.368 53.4343 188.391 54.1028L188.419 55.0035H199.651L199.605 54.0285C199.447 50.7229 198.167 48.1089 195.805 46.2657C193.484 44.4643 190.391 43.5543 186.591 43.5543Z" fill="#467CFD"/>
<path d="M66.4217 44.9611V75.8591H57.8173L46.3571 58.5924V73.1384L49.0872 75.8637H37.7573V44.9611H46.3617L57.8219 62.446V47.5797L55.1987 44.9611L66.4217 44.9611ZM52.9476 44.0325L56.887 47.965V59.3307L47.1384 44.4504L46.864 44.0279H36.827V76.783H51.3383L47.2966 72.7484V61.6706L57.0498 76.3652L57.3242 76.783H67.3566V44.0325H52.9476Z" fill="#467CFD"/>
<path d="M114.058 5.25568V29.5794H123.672V36.1537H105.453V8.7053L101.998 5.25568H114.058ZM114.988 4.32711H105.449H99.7465L104.514 9.08601V37.0776H124.592V28.6509H114.979V4.32711H114.988Z" fill="#467CFD"/>
<path d="M91.4025 5.25568L102.639 36.1537H93.5513L91.8816 31.1116H80.9051L79.2354 36.1537H70.1891L73.5099 27.0537L70.9937 24.542H74.4308L81.4725 5.26032H91.4025M83.105 24.5373H89.7328L86.398 14.546L83.105 24.5373ZM92.0537 4.32711H80.8307L80.6074 4.93997L73.789 23.6134H68.7565L72.4402 27.2905L68.8635 37.0776H79.9144L80.1237 36.4415L81.5795 32.0401H91.2118L92.6676 36.4415L92.8769 37.0776H103.965L103.514 35.8333L92.2769 4.93997L92.0537 4.32711ZM84.3887 23.6088L86.4026 17.4988L88.4445 23.6088H84.3887Z" fill="#467CFD"/>
<path d="M52.636 1.71785L54.6731 4.88425C56.8219 5.12568 58.8219 5.7571 60.6684 6.78781C63.0823 8.13423 64.9938 10.0099 66.3985 12.4196C67.4868 14.286 68.1472 16.3427 68.3938 18.5852L71.5611 20.6188L68.3891 22.6523C68.1379 24.8763 67.4775 26.9145 66.3985 28.7669C64.9938 31.1766 63.0776 33.0616 60.6451 34.4219C58.7893 35.4573 56.7987 36.098 54.6731 36.344L52.636 39.5104L50.5942 36.3394C48.4826 36.0887 46.5059 35.4526 44.6687 34.4219C42.2409 33.0616 40.3153 31.1766 38.8968 28.7669C37.8038 26.9145 37.1387 24.8763 36.8875 22.6523L33.7108 20.6188L36.8829 18.5852C37.1294 16.3427 37.7991 14.286 38.8968 12.4242C40.3153 10.0146 42.2409 8.13887 44.6687 6.79245C46.5105 5.77567 48.4872 5.14425 50.5988 4.89818L52.636 1.71785ZM52.6546 28.4791C54.8499 28.4791 56.5847 27.7641 57.8591 26.3295C59.1335 24.8995 59.7707 22.9866 59.7707 20.5863C59.7707 18.1302 59.1335 16.1988 57.8591 14.7781C56.5847 13.362 54.8499 12.6517 52.6546 12.6517C50.4314 12.6517 48.6872 13.362 47.4315 14.7781C46.171 16.1942 45.5431 18.1302 45.5431 20.5863C45.5431 23.0098 46.171 24.932 47.4315 26.348C48.6919 27.7687 50.4314 28.4791 52.6546 28.4791ZM52.636 0L50.05 4.02533C47.9896 4.31783 46.0268 4.97247 44.2222 5.97532C41.6548 7.39602 39.5944 9.40636 38.0968 11.9506C37.0131 13.7892 36.3154 15.8367 36.0131 18.0374L31.99 20.6141L36.0178 23.1956C36.3201 25.3777 37.0177 27.4066 38.0968 29.2359C39.5944 31.7801 41.6548 33.7951 44.2176 35.2298C46.0268 36.2419 47.9849 36.9012 50.05 37.1983L51.8593 40.0072L52.6406 41.2236L55.2266 37.203C57.3103 36.9105 59.287 36.2465 61.1056 35.2251C63.6729 33.7905 65.7241 31.7708 67.2077 29.2266C68.2728 27.3973 68.9612 25.3684 69.2635 23.1909L72.0681 21.3895L73.2867 20.6095L72.0681 19.8295L69.2682 18.0327C68.9705 15.832 68.2775 13.7892 67.2077 11.946C65.7241 9.40172 63.6776 7.39138 61.1288 5.97067C59.3102 4.95854 57.3289 4.3039 55.2266 4.0114L53.4267 1.21178L52.636 0ZM52.6546 27.5505C50.6918 27.5505 49.2082 26.9562 48.1245 25.7398C47.0268 24.5048 46.4687 22.7731 46.4687 20.5909C46.4687 18.3809 47.0268 16.6352 48.1245 15.4002C49.2082 14.1792 50.6872 13.5895 52.6546 13.5895C54.5894 13.5895 56.0638 14.1838 57.1661 15.4049C58.2777 16.6399 58.8405 18.3856 58.8405 20.5909C58.8405 22.7406 58.2777 24.4677 57.1661 25.7166C56.0638 26.947 54.5894 27.5505 52.6546 27.5505Z" fill="#467CFD"/>
<path d="M146.104 5.25568L157.341 36.1537H148.252L146.583 31.1116H135.606L133.936 36.1537H124.89L128.211 27.0537L125.695 24.542H129.132L136.174 5.26032H146.104M137.806 24.5373H144.434L141.099 14.546L137.806 24.5373ZM146.755 4.32711H135.532L128.49 23.6134H123.458L127.141 27.2905L123.565 37.0776H134.615L134.825 36.4415L136.281 32.0401H145.913L147.369 36.4415L147.578 37.0776H158.666L146.978 4.93532L146.755 4.32711ZM139.094 23.6088L141.108 17.4988L143.15 23.6088H139.094Z" fill="#467CFD"/>
</g>
</svg>
