<svg width="196" height="34" viewBox="0 0 196 34" fill="none" xmlns="http://www.w3.org/2000/svg">
<g clip-path="url(#clip0_1335_6933)">
<path d="M17.5 0.013916C17.1656 0.013916 16.8311 0.0250635 16.5023 0.0473586V1.72506C16.8311 1.70277 17.1656 1.69162 17.5 1.69162C25.9498 1.69162 32.8279 8.56965 32.8279 17.0195C32.8279 20.7149 31.5125 24.1093 29.3275 26.7624V26.7513V24.5664H27.1426V22.3703H24.9521V20.1854H27.137V18.0005H29.322V15.8156V13.6195H27.137H24.9521V15.8044H22.7672V13.6195H20.5823V11.4346H18.3974V9.24965H16.2125V7.06474H14.0275V4.86867H11.8426V2.68375H9.65771H7.47279H5.28787H3.10295V4.86867V7.05359V9.23851V11.4234H5.28787V13.6083H7.47279V15.7933H9.65771V17.9782H11.8426V20.1631H14.0275V22.348H16.2125V24.5329H14.0275V26.7179V28.9028H16.2125H18.3974V26.7179H20.5823V24.5329H22.7672V26.7179H24.9521V28.9028H27.1203C24.4895 31.032 21.1397 32.3139 17.4944 32.3139C9.04459 32.3139 2.16656 25.4359 2.16656 16.986C2.16656 16.6516 2.18328 16.3172 2.2 15.9883H0.533443C0.516721 16.3172 0.5 16.6516 0.5 16.986C0.5 26.3611 8.12492 33.986 17.5 33.986C26.8751 33.986 34.5 26.3611 34.5 16.986C34.5 7.61097 26.8751 0.013916 17.5 0.013916ZM20.5823 20.1854H18.3974V18.0005H16.2125V15.8156H14.0275V13.6195H11.8426V11.4346H9.65771V9.24965H11.8426V11.4346H14.0275V13.6195H16.2125V15.8044H18.3974V17.9893H20.5823V20.1854Z" fill="#F17237"/>
<path d="M125.167 10.495H120.972L116.913 16.1315V10.495H111.741L113.274 12.0287V22.039L111.741 23.5727H116.913V17.8394L121.011 23.5727H125.408L120.362 16.8379L125.167 10.495Z" fill="white"/>
<path d="M144.568 10.495H139.831L140.934 11.5981V23.5727H145.908L144.568 22.2374V10.495Z" fill="white"/>
<path d="M155.923 18.7297C155.376 19.8812 154.472 20.4569 153.194 20.4569C152.12 20.4569 151.298 20.1618 150.737 19.5764C150.175 18.9909 149.895 18.1346 149.895 17.0073C149.895 16.0057 150.156 15.2074 150.683 14.6123C151.211 14.0172 151.927 13.7221 152.846 13.7221C153.34 13.7221 153.77 13.814 154.133 14.0027C154.496 14.1866 154.786 14.4527 154.994 14.801H158.908C158.647 13.427 157.979 12.348 156.905 11.5546C155.831 10.7611 154.467 10.3692 152.822 10.3692C151.511 10.3692 150.354 10.6498 149.353 11.2111C148.351 11.7723 147.577 12.5609 147.026 13.5673C146.474 14.5736 146.198 15.7203 146.198 17.0073C146.198 18.3039 146.474 19.4602 147.026 20.4666C147.577 21.4729 148.356 22.2616 149.363 22.8228C150.369 23.384 151.53 23.6646 152.841 23.6646C153.915 23.6646 154.873 23.4711 155.715 23.0792C156.557 22.6873 157.254 22.1938 157.8 21.5842C158.352 20.9794 158.768 20.3311 159.053 19.6344V16.1122H152.265V18.7297H155.923Z" fill="white"/>
<path d="M168.759 15.4106H164.327V10.495H159.455L160.689 11.7336V15.3623H159.455L160.689 16.6008V22.5809L159.702 23.5727H164.327V18.3233H168.759V23.5727H172.397V10.495H168.759V15.4106Z" fill="white"/>
<path d="M173.752 14.2737L174.637 13.3883H177.202V23.5727H180.835V13.3883H183.438L184.324 14.2737V10.495H173.752V14.2737Z" fill="white"/>
<path d="M194.905 17.6991C194.518 17.1959 194.053 16.8089 193.511 16.5283C192.974 16.2477 192.292 15.967 191.46 15.6864C190.904 15.4881 190.483 15.3236 190.197 15.1929C189.912 15.0623 189.675 14.9075 189.481 14.7285C189.288 14.5494 189.196 14.3366 189.196 14.0898C189.196 13.7947 189.283 13.5624 189.457 13.4028C189.631 13.2431 189.854 13.1609 190.125 13.1609C190.483 13.1609 190.778 13.2576 191.005 13.456C191.232 13.6544 191.353 13.9495 191.368 14.3462H195.321C195.258 13.0593 194.774 12.0626 193.865 11.3514C192.955 10.6402 191.741 10.287 190.221 10.287C189.283 10.287 188.441 10.4418 187.701 10.7514C186.96 11.0611 186.375 11.5159 185.959 12.1158C185.538 12.7158 185.33 13.4366 185.33 14.2785C185.33 15.1058 185.523 15.7783 185.915 16.2912C186.302 16.8041 186.762 17.1959 187.289 17.462C187.817 17.7282 188.504 18.0039 189.36 18.2894C190.163 18.5507 190.744 18.7829 191.102 18.9958C191.46 19.2038 191.639 19.5038 191.639 19.886C191.639 20.1811 191.532 20.4134 191.315 20.5827C191.097 20.752 190.821 20.8343 190.487 20.8343C190.115 20.8343 189.815 20.7278 189.578 20.5198C189.341 20.3118 189.205 19.9779 189.171 19.5183H185.296C185.369 20.8682 185.896 21.9035 186.873 22.6244C187.851 23.3502 189.099 23.7082 190.618 23.7082C191.62 23.7082 192.49 23.5292 193.226 23.1712C193.961 22.8131 194.522 22.3245 194.914 21.7052C195.306 21.0859 195.5 20.3892 195.5 19.6102C195.49 18.8361 195.297 18.2023 194.905 17.6991Z" fill="white"/>
<path d="M134.112 10.495L135.22 11.603V17.8975L130.377 10.495H126.744V23.5727H131.534L130.377 22.4212V16.2622L135.22 23.5727H138.859V10.495H134.112Z" fill="white"/>
<path d="M54.3689 10.495H50.1742L46.11 16.1364V10.495H40.938L42.4765 12.0336V22.039L40.938 23.5727H46.11V17.8443L50.2129 23.5727H54.606L49.5645 16.8428L54.3689 10.495Z" fill="white"/>
<path d="M88.1832 10.495H83.0886L84.5497 11.9562V23.5727H92.2473V20.7907H88.1832V10.495Z" fill="white"/>
<path d="M74.4185 10.495L71.443 18.6571H69.9915L71.0559 19.7215L69.6528 23.5727H73.475L74.1814 21.4391H78.8213L79.5276 23.5727H83.3692L78.6181 10.495H74.4185ZM75.1055 18.6571L76.4989 14.4285L77.9068 18.6571H75.1055Z" fill="white"/>
<path d="M68.8884 16.1364C68.7868 15.1881 68.5062 14.3172 68.0465 13.5286C67.4514 12.5077 66.6483 11.7142 65.6274 11.1433C64.8485 10.7079 64.0018 10.4418 63.0922 10.3402L62.231 9L61.3698 10.3402C60.4796 10.4466 59.6426 10.7127 58.8636 11.1433C57.8379 11.7142 57.0251 12.5077 56.4251 13.5286C55.9607 14.3172 55.68 15.1881 55.5736 16.1364L54.2334 16.9976L55.5736 17.8588C55.68 18.8022 55.9607 19.6634 56.4251 20.4472C57.0251 21.4681 57.8379 22.2664 58.8636 22.8422C59.6426 23.2776 60.4747 23.5485 61.3698 23.655L62.231 25L63.0922 23.6598C63.9921 23.5582 64.834 23.2873 65.6178 22.847C66.6435 22.2712 67.4563 21.4729 68.0465 20.4521C68.5013 19.6683 68.782 18.8022 68.8884 17.8636L70.2286 17.0024L68.8884 16.1364ZM64.4372 19.4167C63.9002 20.0215 63.1648 20.3263 62.2407 20.3263C61.3021 20.3263 60.5667 20.0263 60.0344 19.4264C59.5022 18.8264 59.2361 18.0136 59.2361 16.9879C59.2361 15.9477 59.5022 15.13 60.0344 14.5301C60.5667 13.9301 61.3021 13.6302 62.2407 13.6302C63.1696 13.6302 63.9002 13.9301 64.4372 14.5301C64.9743 15.13 65.2452 15.9477 65.2452 16.9879C65.2452 17.9991 64.9791 18.8119 64.4372 19.4167Z" fill="#F17237"/>
<path d="M97.5355 10.495L94.56 18.6571H93.1085L94.1729 19.7215L92.7699 23.5727H96.592L97.2984 21.4391H101.938L102.645 23.5727H106.486L101.735 10.495H97.5355ZM98.2225 18.6571L99.6159 14.4285L101.019 18.6571H98.2225Z" fill="white"/>
</g>
<defs>
<clipPath id="clip0_1335_6933">
<rect width="195" height="33.9721" fill="white" transform="translate(0.5 0.013916)"/>
</clipPath>
</defs>
</svg>
