<svg width="167" height="9" viewBox="0 0 167 9" fill="none" xmlns="http://www.w3.org/2000/svg">
<g id="&#236;&#130;&#176;&#235;&#170;&#168;&#236;&#150;&#145;">
<path id="Polygon 12" d="M5.5 0L9.39711 6.75H1.60289L5.5 0Z" fill="#242A4B"/>
<path id="Polygon 13" d="M13.5 0L17.3971 6.75H9.60289L13.5 0Z" fill="#242A4B"/>
<path id="Polygon 14" d="M21.5 0L25.3971 6.75H17.6029L21.5 0Z" fill="#242A4B"/>
<path id="Polygon 15" d="M29.5 0L33.3971 6.75H25.6029L29.5 0Z" fill="#242A4B"/>
<path id="Polygon 16" d="M37.5 0L41.3971 6.75H33.6029L37.5 0Z" fill="#242A4B"/>
<path id="Polygon 17" d="M45.5 0L49.3971 6.75H41.6029L45.5 0Z" fill="#242A4B"/>
<path id="Polygon 18" d="M53.5 0L57.3971 6.75H49.6029L53.5 0Z" fill="#242A4B"/>
<path id="Polygon 19" d="M61.5 0L65.3971 6.75H57.6029L61.5 0Z" fill="#242A4B"/>
<path id="Polygon 20" d="M69.5 0L73.3971 6.75H65.6029L69.5 0Z" fill="#242A4B"/>
<path id="Polygon 21" d="M77.5 0L81.3971 6.75H73.6029L77.5 0Z" fill="#242A4B"/>
<path id="Polygon 22" d="M85.5 0L89.3971 6.75H81.6029L85.5 0Z" fill="#242A4B"/>
<path id="Polygon 23" d="M93.5 0L97.3971 6.75H89.6029L93.5 0Z" fill="#242A4B"/>
<path id="Polygon 24" d="M101.5 0L105.397 6.75H97.6029L101.5 0Z" fill="#242A4B"/>
<path id="Polygon 25" d="M110.5 0L114.397 6.75H106.603L110.5 0Z" fill="#242A4B"/>
<path id="Polygon 26" d="M119.5 0L123.397 6.75H115.603L119.5 0Z" fill="#242A4B"/>
<path id="Polygon 27" d="M128.5 0L132.397 6.75H124.603L128.5 0Z" fill="#242A4B"/>
<rect id="&#235;&#157;&#188;&#236;&#157;&#184;" y="6" width="167" height="2" fill="#242A4B"/>
</g>
</svg>
