<svg width="155" height="17" viewBox="0 0 155 17" fill="none" xmlns="http://www.w3.org/2000/svg">
<g id="Vector">
<path d="M84.2286 2.48109H80.0339L75.9746 8.11762V2.48109H70.8025L72.3362 4.01481V14.0251L70.8025 15.5588H75.9746V9.82552L80.0726 15.5588H84.4705L79.4242 8.824L84.2286 2.48109Z" fill="white"/>
<path d="M103.63 2.48109H98.8932L99.9964 3.58421V15.5588H104.97L103.63 14.2235V2.48109Z" fill="white"/>
<path d="M114.985 10.7157C114.438 11.8672 113.534 12.443 112.256 12.443C111.182 12.443 110.36 12.1479 109.799 11.5624C109.237 10.977 108.957 10.1206 108.957 8.99334C108.957 7.99183 109.218 7.19352 109.745 6.59842C110.273 6.00332 110.989 5.70819 111.908 5.70819C112.402 5.70819 112.832 5.80011 113.195 5.9888C113.558 6.17266 113.848 6.43876 114.056 6.78711H117.97C117.709 5.41306 117.041 4.33413 115.967 3.54066C114.893 2.7472 113.529 2.3553 111.884 2.3553C110.573 2.3553 109.416 2.63592 108.415 3.19715C107.413 3.75838 106.639 4.54701 106.088 5.55336C105.536 6.55971 105.26 7.70637 105.26 8.99334C105.26 10.29 105.536 11.4463 106.088 12.4527C106.639 13.459 107.418 14.2477 108.425 14.8089C109.431 15.3701 110.592 15.6507 111.903 15.6507C112.977 15.6507 113.935 15.4572 114.777 15.0653C115.619 14.6734 116.316 14.1799 116.862 13.5703C117.414 12.9655 117.83 12.3172 118.115 11.6205V8.09827H111.327V10.7157H114.985Z" fill="white"/>
<path d="M127.821 7.39673H123.389V2.48109H118.517L119.751 3.71968V7.34834H118.517L119.751 8.58693V14.567L118.764 15.5588H123.389V10.3093H127.821V15.5588H131.459V2.48109H127.821V7.39673Z" fill="white"/>
<path d="M132.814 6.25975L133.699 5.37435H136.264V15.5588H139.897V5.37435H142.5L143.386 6.25975V2.48109H132.814V6.25975Z" fill="white"/>
<path d="M153.967 9.68521C153.58 9.18203 153.115 8.79497 152.573 8.51436C152.036 8.23374 151.354 7.95312 150.522 7.67251C149.966 7.47414 149.545 7.30964 149.259 7.17901C148.974 7.04838 148.737 6.89355 148.543 6.71454C148.35 6.53552 148.258 6.32264 148.258 6.07589C148.258 5.78076 148.345 5.54853 148.519 5.38887C148.693 5.2292 148.916 5.14695 149.187 5.14695C149.545 5.14695 149.84 5.24372 150.067 5.44209C150.295 5.64045 150.415 5.93558 150.43 6.33232H154.383C154.32 5.04535 153.836 4.04868 152.927 3.33746C152.017 2.62624 150.803 2.27305 149.283 2.27305C148.345 2.27305 147.503 2.42787 146.763 2.73752C146.022 3.04717 145.437 3.50196 145.021 4.1019C144.6 4.70184 144.392 5.42273 144.392 6.26458C144.392 7.09192 144.585 7.76443 144.977 8.27728C145.364 8.79014 145.824 9.18203 146.351 9.44813C146.879 9.71424 147.566 9.99002 148.422 10.2755C149.225 10.5367 149.806 10.769 150.164 10.9819C150.522 11.1899 150.701 11.4899 150.701 11.8721C150.701 12.1672 150.594 12.3994 150.377 12.5688C150.159 12.7381 149.883 12.8204 149.549 12.8204C149.177 12.8204 148.877 12.7139 148.64 12.5059C148.403 12.2978 148.267 11.964 148.233 11.5044H144.358C144.431 12.8542 144.958 13.8896 145.935 14.6105C146.913 15.3363 148.161 15.6943 149.68 15.6943C150.682 15.6943 151.552 15.5153 152.288 15.1572C153.023 14.7992 153.585 14.3105 153.976 13.6913C154.368 13.072 154.562 12.3753 154.562 11.5963C154.552 10.8222 154.359 10.1884 153.967 9.68521Z" fill="white"/>
<path d="M93.1745 2.48109L94.2824 3.58905V9.88357L89.4394 2.48109H85.8059V15.5588H90.5957L89.4394 14.4073V8.24825L94.2824 15.5588H97.9208V2.48109H93.1745Z" fill="white"/>
<path d="M13.4309 2.48109H9.23617L5.17206 8.12246V2.48109H0L1.53855 4.01965V14.0251L0 15.5588H5.17206V9.83035L9.27487 15.5588H13.668L8.62655 8.82884L13.4309 2.48109Z" fill="white"/>
<path d="M47.2452 2.48109H42.1506L43.6117 3.94224V15.5588H51.3093V12.7768H47.2452V2.48109Z" fill="white"/>
<path d="M33.4805 2.48109L30.505 10.6432H29.0535L30.1179 11.7076L28.7148 15.5588H32.537L33.2434 13.4252H37.8833L38.5896 15.5588H42.4312L37.6801 2.48109H33.4805ZM34.1675 10.6432L35.5609 6.41457L36.9689 10.6432H34.1675Z" fill="white"/>
<path d="M27.9504 8.12246C27.8488 7.17417 27.5682 6.30329 27.1086 5.51466C26.5135 4.49379 25.7103 3.70033 24.6894 3.12942C23.9105 2.69398 23.0638 2.42787 22.1542 2.32627L21.293 0.986084L20.4318 2.32627C19.5416 2.43271 18.7046 2.69881 17.9256 3.12942C16.8999 3.70033 16.0871 4.49379 15.4871 5.51466C15.0227 6.30329 14.7421 7.17417 14.6356 8.12246L13.2954 8.98366L14.6356 9.84487C14.7421 10.7883 15.0227 11.6495 15.4871 12.4333C16.0871 13.4542 16.8999 14.2525 17.9256 14.8282C18.7046 15.2637 19.5367 15.5346 20.4318 15.6411L21.293 16.9861L22.1542 15.6459C23.0541 15.5443 23.896 15.2734 24.6798 14.8331C25.7055 14.2573 26.5183 13.459 27.1086 12.4382C27.5633 11.6544 27.844 10.7883 27.9504 9.84971L29.2906 8.9885L27.9504 8.12246ZM23.4992 11.4028C22.9622 12.0076 22.2268 12.3124 21.3027 12.3124C20.3641 12.3124 19.6287 12.0124 19.0965 11.4125C18.5643 10.8125 18.2982 9.99969 18.2982 8.97399C18.2982 7.93377 18.5643 7.11611 19.0965 6.51617C19.6287 5.91623 20.3641 5.61626 21.3027 5.61626C22.2316 5.61626 22.9622 5.91623 23.4992 6.51617C24.0363 7.11611 24.3072 7.93377 24.3072 8.97399C24.3072 9.98518 24.0411 10.798 23.4992 11.4028Z" fill="#F17237"/>
<path d="M56.5975 2.48109L53.622 10.6432H52.1705L53.235 11.7076L51.8319 15.5588H55.6541L56.3604 13.4252H61.0003L61.7067 15.5588H65.5482L60.7971 2.48109H56.5975ZM57.2845 10.6432L58.6779 6.41457L60.081 10.6432H57.2845Z" fill="white"/>
</g>
</svg>
