<svg width="401" height="167" viewBox="0 0 401 167" fill="none" xmlns="http://www.w3.org/2000/svg">
<path d="M208.619 33.4798V86.9043H265.95L266.35 85.6856L269.132 77.2854H287.476L290.249 85.6856L290.658 86.9043H311.775L317.356 74.8761L316.454 72.3737L293.523 9.24663H271.076L270.63 10.4653L256.992 47.8801H246.927L245.234 57.9827H229.987V9.24663H210.907H199.512L199.53 24.3912L208.619 33.4798Z" fill="#363C60"/>
<path d="M396.846 123.64C395.739 122.226 394.512 120.97 393.163 119.891L399.312 110.793L399.219 108.84C398.902 102.216 396.344 96.9789 391.618 93.2858C386.995 89.6764 380.809 87.8438 373.218 87.8438C368.548 87.8438 364.288 88.6345 360.557 90.1787C356.725 91.7788 353.683 94.1695 351.497 97.2859C350.269 99.0348 349.394 100.998 348.845 103.137C348.241 104.114 347.682 105.202 347.152 106.3V88.802H293.384L290.695 97.9371V88.802H269.764L266.443 103.891V112.068H252.499V88.802H223.084L222.275 99.872C220.721 97.7231 218.852 95.8068 216.619 94.1695C211.224 90.1973 204.349 88.188 196.2 88.188C189.697 88.188 183.865 89.6113 178.869 92.4207C173.837 95.2486 169.892 99.2487 167.129 104.3C165.306 107.64 164.097 111.323 163.474 115.286L163.595 105.658V103.891L161.771 88.802H113.649L114.719 87.1275C118.682 86.5694 122.449 85.2949 125.919 83.36C130.803 80.625 134.719 76.7738 137.538 71.9179C139.324 68.8573 140.552 65.4991 141.213 61.9083L142.143 62.8386L138.664 72.383L137.752 74.8761L140.71 86.9043H161.753L162.153 85.6856L164.925 77.2854H183.269L186.042 85.6856L186.442 86.9043H207.568L207.949 74.8761L207.047 72.383L184.562 10.4746L184.116 9.24663H161.669L161.222 10.4746L147.659 47.6847L146.571 41.8799L144.134 40.3171L138.533 36.717C137.938 32.3076 136.552 28.2145 134.412 24.5214C131.445 19.4236 127.352 15.3956 122.254 12.549C118.617 10.5211 114.654 9.20942 110.449 8.62336L105.286 0.57666L100.114 8.64196C95.9929 9.22802 92.0673 10.5397 88.4579 12.549C83.9089 15.07 80.16 18.5213 77.2762 22.8283L71.7877 9.24663H47.2569L46.6988 10.0187L36.8288 23.7121L30.8286 9.24663H0L9.89791 19.1445V24.3912H9.5072L9.89791 24.7819V64.9688L3.17217 71.6946L0 74.8761L9.5165 86.9043H38.8753V64.8107L54.1408 86.16L54.671 86.9043H78.9507L72.904 74.8761L70.6714 71.8992L56.3734 52.8011L64.2341 42.4195L70.4389 55.471L72.7645 56.9594L76.1971 59.1641C76.9041 60.3641 77.6762 61.499 78.5042 62.5781C79.2018 65.9177 80.3926 69.0527 82.0763 71.9179C84.9322 76.7738 88.8486 80.6157 93.7324 83.3507C97.1744 85.2763 100.914 86.5415 104.84 87.1089L105.919 88.7927H105.891L110.365 103.881L113.77 107.286V119.445L94.272 89.6299L93.7231 88.7834H73.6482V93.3881L71.7877 88.7834H47.2569L46.6988 89.5555L37.8241 101.881L30.8379 88.7834H0L9.89791 98.6813V103.872H9.5072L9.89791 104.263V144.515L3.17217 151.241L0 154.431L9.5165 166.394H38.8753V144.31L47.4151 158.162L54.671 166.404H78.9507L72.904 154.441L70.6714 151.464L56.3455 132.338L73.6482 109.491V154.431L79.6577 166.394H107.296L102.663 154.431L98.4023 150.171L99.593 137.557L118.17 165.604L118.691 166.394H137.799V105.547L140.803 108.551V154.431L143.622 166.394H172.078L170.72 154.72C173.139 158.022 176.199 160.729 179.874 162.785C184.665 165.455 190.228 166.813 196.423 166.813C201.512 166.813 206.126 165.874 210.135 164.013C214.126 162.162 217.484 159.762 220.107 156.869C222.712 153.994 224.722 150.869 226.08 147.566L226.21 147.241V146.887L227.522 134.319V131.417L230.024 133.919L230.852 147.789L224.21 154.431L223.056 166.394H249.959L252.452 154.431V142.729H266.397V166.394H286.323L290.639 154.431V125.231L295.384 120.486H304.444V166.394H324.37L330.584 154.431V120.486H333.598L341.999 128.887C342.492 130.366 343.171 131.705 344.064 132.868C345.068 134.189 346.176 135.352 347.385 136.347L340.808 144.534L340.91 146.403C341.273 153.008 343.906 158.162 348.734 161.743C353.431 165.222 359.469 166.981 366.678 166.981C371.441 166.981 375.665 166.106 379.209 164.376C382.818 162.618 392.372 151.036 394.298 147.975C394.298 147.975 394.298 147.975 394.298 147.966C395.293 146.961 396.158 145.864 396.902 144.682C398.93 141.473 399.953 137.798 399.953 133.77C400 129.742 398.94 126.328 396.846 123.64ZM72.0203 36.7077L65.2945 41.0241L73.6389 30.0099C72.8761 32.1495 72.3366 34.3821 72.0203 36.7077ZM105.314 55.7779C102.402 55.7779 100.021 55.1175 98.1046 53.7872C98.3465 50.3453 99.3884 47.5731 101.193 45.5265C103.258 43.2009 106.077 42.066 109.817 42.066C112.998 42.066 115.519 42.9125 117.491 44.6428C117.091 47.6661 116.04 50.1685 114.328 52.1034C112.133 54.5686 109.184 55.7779 105.314 55.7779ZM188.032 125.407C189.065 124.245 190.274 123.389 191.688 122.821V134.97C190.097 134.375 188.749 133.519 187.651 132.366C186.879 131.556 186.246 130.598 185.725 129.519C186.246 127.928 187.009 126.561 188.032 125.407ZM163.306 126.719C163.315 126.756 163.315 126.794 163.325 126.831C163.306 127.138 163.297 127.463 163.297 127.817L163.306 126.719ZM167.529 151.259L163.046 146.775L163.288 127.808C163.288 133.938 166.05 146.682 168.664 151.464C169.13 152.31 169.632 153.11 170.171 153.892L167.529 151.259ZM218.814 155.678C216.331 158.413 213.196 160.655 209.41 162.413C205.614 164.171 201.298 165.046 196.451 165.046C190.544 165.046 185.316 163.78 180.767 161.241C176.218 158.701 172.711 155.166 170.227 150.617C169.92 150.05 169.623 149.473 169.353 148.887C169.623 149.473 169.911 150.05 170.227 150.617C172.711 155.166 176.218 158.701 180.767 161.241C185.307 163.78 190.535 165.046 196.451 165.046C201.298 165.046 205.623 164.171 209.41 162.413C213.205 160.655 216.34 158.413 218.814 155.678ZM386.083 156.18C384.325 158.971 381.786 161.166 378.474 162.785C375.153 164.404 371.237 165.213 366.725 165.213C359.869 165.213 354.232 163.585 349.831 160.32C349.422 160.013 349.022 159.697 348.65 159.362C349.031 159.697 349.422 160.013 349.831 160.32C354.232 163.585 359.869 165.213 366.725 165.213C371.237 165.213 375.153 164.404 378.474 162.785C381.786 161.166 384.325 158.971 386.083 156.18C386.307 155.836 386.511 155.473 386.697 155.12C386.511 155.473 386.297 155.827 386.083 156.18ZM391.404 148.115C392.158 147.51 392.846 146.868 393.479 146.18C392.837 146.859 392.149 147.51 391.404 148.115ZM395.377 143.706C395.116 144.124 394.828 144.533 394.53 144.924C394.828 144.524 395.116 144.124 395.377 143.706Z" fill="#363C60"/>
<path d="M68.0481 11.1071H48.2058L28.9681 37.7961V11.1071H4.49313L11.7584 18.3724V65.741L4.49313 73.0155H28.9681V45.88L48.3825 73.0155H69.1923L45.3034 41.1357L68.0481 11.1071Z" fill="white"/>
<path d="M68.0481 90.6625H48.2058L28.9681 117.361V90.6625H4.49313L11.7584 97.9371V145.306L4.49313 152.571H11.7584H28.9681V125.435L48.3825 152.571H69.1923L45.3034 120.7L68.0481 90.6625Z" fill="white"/>
<path d="M159.892 90.6625H142.682H137.464L142.682 95.8812V152.571H159.892H166.218L159.892 146.254V90.6625Z" fill="white"/>
<path d="M193.549 129.649H210.851C208.275 135.091 203.968 137.817 197.939 137.817C192.842 137.817 188.972 136.431 186.302 133.65C183.641 130.868 182.311 126.812 182.311 121.491C182.311 116.747 183.558 112.97 186.042 110.161C188.525 107.351 191.939 105.947 196.274 105.947C198.619 105.947 200.647 106.384 202.377 107.268C204.107 108.142 205.465 109.407 206.461 111.044H224.991C223.763 104.551 220.6 99.4255 215.512 95.6766C210.414 91.9276 203.977 90.0578 196.191 90.0578C189.986 90.0578 184.516 91.3881 179.772 94.0486C175.027 96.7091 171.353 100.43 168.748 105.202C166.143 109.975 164.841 115.407 164.841 121.491C164.841 127.64 166.143 133.101 168.748 137.864C171.353 142.636 175.037 146.348 179.809 149.017C184.581 151.678 190.07 153.008 196.274 153.008C201.363 153.008 205.902 152.087 209.884 150.245C213.865 148.403 217.159 146.05 219.763 143.175C222.368 140.31 224.34 137.231 225.689 133.957V117.277H193.549V129.649Z" fill="white"/>
<path d="M271.606 113.937H250.62V90.6625H227.559L233.41 96.5231V113.705H227.559L233.41 119.556V147.882L228.722 152.571H233.41H250.62V127.724H271.606V152.571H288.816V90.6625H271.606V113.937Z" fill="white"/>
<path d="M295.225 104.365V108.551L299.421 104.365H311.561V152.571H328.77V104.365H341.087L345.282 108.551V104.365V90.6625H295.225V104.365Z" fill="white"/>
<path d="M395.377 124.784C393.535 122.412 391.339 120.57 388.79 119.249C386.242 117.928 383.004 116.598 379.088 115.249C376.455 114.31 374.465 113.537 373.116 112.923C371.767 112.31 370.641 111.575 369.739 110.728C368.827 109.882 368.381 108.868 368.381 107.695C368.381 106.291 368.79 105.212 369.609 104.449C370.427 103.686 371.478 103.305 372.771 103.305C374.465 103.305 375.86 103.77 376.939 104.709C378.018 105.649 378.595 107.054 378.651 108.923H397.358C397.07 102.84 394.772 98.1045 390.465 94.7463C386.158 91.3788 380.409 89.695 373.209 89.695C368.762 89.695 364.781 90.4299 361.264 91.8904C357.748 93.3509 355.004 95.5091 353.013 98.3464C351.022 101.184 350.027 104.598 350.027 108.579C350.027 112.505 350.948 115.677 352.79 118.105C354.632 120.533 356.799 122.375 359.283 123.64C361.767 124.896 365.032 126.198 369.078 127.547C372.883 128.775 375.637 129.891 377.33 130.887C379.023 131.882 379.879 133.287 379.879 135.101C379.879 136.505 379.367 137.603 378.344 138.394C377.32 139.185 376.018 139.575 374.437 139.575C372.678 139.575 371.246 139.082 370.13 138.087C369.013 137.091 368.371 135.51 368.195 133.343H349.841C350.194 139.724 352.678 144.627 357.301 148.05C361.925 151.473 367.841 153.185 375.041 153.185C379.786 153.185 383.897 152.338 387.376 150.636C390.856 148.943 393.525 146.627 395.367 143.696C397.209 140.766 398.13 137.464 398.13 133.77C398.14 130.152 397.219 127.147 395.377 124.784Z" fill="white"/>
<path d="M110.393 90.6625L115.64 95.9184V125.705L92.7184 90.6625H75.5087V152.571H98.179L92.7184 147.12V117.975L115.64 152.571H132.85V90.6625H110.393Z" fill="white"/>
<path d="M210.907 73.0155H247.355V59.8432H228.126V11.1071H204.005L210.907 18.0189V73.0155Z" fill="white"/>
<path d="M147.045 54.7826L140.403 73.0155H158.497L161.836 62.913H183.79L187.13 73.0155H205.307L182.832 11.1071H162.99L148.906 49.7406H142.031L147.045 54.7826ZM172.804 29.7215L179.474 49.7406H166.218L172.804 29.7215Z" fill="white"/>
<path d="M136.794 37.8054C136.301 33.3123 134.98 29.1913 132.803 25.4517C129.994 20.6236 126.17 16.8654 121.342 14.1677C117.649 12.1025 113.649 10.8374 109.351 10.3536L105.277 4.0093L101.193 10.3629C96.9697 10.856 93.0161 12.1211 89.3323 14.1584C84.4764 16.8561 80.6251 20.6143 77.7879 25.4424C75.5925 29.182 74.2529 33.303 73.7599 37.7868L67.4155 41.8613L73.7692 45.9359C74.2715 50.3918 75.6111 54.4756 77.7879 58.1873C80.6251 63.0153 84.4764 66.7922 89.3323 69.5178C93.0161 71.583 96.9697 72.8574 101.184 73.3598L105.268 79.7134L109.342 73.3691C113.593 72.876 117.584 71.6016 121.287 69.5178C126.142 66.7922 129.975 63.0153 132.794 58.1873C134.952 54.4756 136.273 50.3918 136.775 45.9359L143.12 41.8613L136.794 37.8054ZM115.724 53.3314C113.175 56.1966 109.705 57.6385 105.314 57.6385C100.867 57.6385 97.379 56.2245 94.8673 53.3779C92.3463 50.5406 91.0905 46.6894 91.0905 41.8334C91.0905 36.9124 92.3463 33.0425 94.8673 30.196C97.379 27.3587 100.867 25.9354 105.314 25.9354C109.705 25.9354 113.175 27.3587 115.724 30.196C118.273 33.0332 119.547 36.9124 119.547 41.8334C119.547 46.6335 118.273 50.4662 115.724 53.3314Z" fill="white"/>
<path d="M292.221 11.1071H272.378L258.294 49.7406H251.42L256.452 54.7733L249.81 73.0063H267.904L271.243 62.9037H293.198L296.537 73.0063H314.714L292.221 11.1071ZM275.625 49.7406L282.211 29.7215L288.881 49.7406H275.625Z" fill="white"/>
<path d="M68.0481 11.1071L45.3034 41.1357L69.183 73.0063H48.3825L28.9681 45.88V73.0155H4.49313L11.7584 65.7503V18.3724L4.49313 11.1071H28.9681V37.8054L48.1965 11.1071H68.0481ZM71.7877 9.24663H47.2569L46.6988 10.0187L30.8286 32.0379V9.24663H0L9.89791 19.1445V64.9688L3.17217 71.6946L0 74.8761H30.8286V51.6755L47.4151 74.8761H72.904L70.6714 71.8992L47.6383 41.145L69.5365 12.2327L71.7877 9.24663Z" fill="#363C60"/>
<path d="M68.0481 90.6625L45.3034 120.7L69.183 152.571L48.3825 152.571L28.9774 125.435V152.571L4.49313 152.571L11.7584 145.306V97.9371L4.49313 90.6718H28.9681V117.37L48.1965 90.6718H68.0481M71.7877 88.802H47.2569L46.6988 89.5741L30.8379 111.593V88.802H0L9.89791 98.6999V144.524L3.17217 151.25L0 154.431L30.8286 154.431V131.24L47.4151 154.441L72.904 154.441L70.6714 151.464L47.629 120.71L69.5272 91.7974L71.7877 88.802Z" fill="#363C60"/>
<path d="M159.892 90.6625V146.245L166.218 152.571H159.892H142.682V95.8812L137.464 90.6625H142.682H159.892ZM161.753 88.802H132.971L140.813 96.644V154.422H170.702L161.753 145.473V88.802Z" fill="#363C60"/>
<path d="M196.181 90.0485C203.968 90.0485 210.405 91.9183 215.503 95.6672C220.591 99.4162 223.754 104.533 224.982 111.035H206.451C205.456 109.398 204.098 108.142 202.367 107.258C200.637 106.384 198.609 105.937 196.265 105.937C191.93 105.937 188.525 107.342 186.032 110.151C183.539 112.961 182.302 116.738 182.302 121.482C182.302 126.812 183.632 130.859 186.293 133.64C188.953 136.422 192.832 137.808 197.93 137.808C203.958 137.808 208.265 135.082 210.842 129.64H193.539V117.258H225.68V133.957C224.331 137.24 222.359 140.31 219.754 143.175C217.149 146.041 213.856 148.403 209.875 150.245C205.893 152.087 201.354 153.008 196.265 153.008C190.06 153.008 184.572 151.678 179.8 149.017C175.027 146.357 171.344 142.636 168.739 137.864C166.134 133.091 164.832 127.631 164.832 121.491C164.832 115.407 166.134 109.975 168.739 105.202C171.344 100.43 175.018 96.7184 179.762 94.0486C184.507 91.3788 189.977 90.0485 196.181 90.0485ZM196.181 88.188C189.679 88.188 183.846 89.6113 178.851 92.4207C173.818 95.2486 169.874 99.2487 167.111 104.3C164.367 109.323 162.971 115.11 162.971 121.482C162.971 127.919 164.367 133.724 167.111 138.747C169.874 143.808 173.837 147.808 178.897 150.636C183.921 153.445 189.772 154.869 196.265 154.869C201.605 154.869 206.451 153.883 210.656 151.929C214.842 149.985 218.368 147.464 221.131 144.422C223.866 141.408 225.977 138.124 227.401 134.654L227.54 134.31V115.417H191.679V131.519H207.568C205.307 134.505 202.126 135.966 197.93 135.966C193.325 135.966 189.958 134.794 187.642 132.366C185.335 129.956 184.162 126.301 184.162 121.491C184.162 117.24 185.26 113.844 187.428 111.398C189.567 108.979 192.451 107.807 196.265 107.807C198.302 107.807 200.07 108.179 201.521 108.923C202.944 109.649 204.033 110.654 204.861 112.012L205.4 112.905H227.215L226.796 110.7C225.484 103.76 222.052 98.1975 216.591 94.1788C211.205 90.2066 204.33 88.188 196.181 88.188Z" fill="#363C60"/>
<path d="M288.816 90.6625V152.571H271.606V127.724H250.62V152.571H233.41H228.722L233.41 147.882V119.556L227.559 113.705H233.41V96.5231L227.559 90.6718H250.62V113.937H271.606V90.6625H288.816ZM269.746 88.802V112.068H252.48V88.802H223.066L231.55 97.2859V111.835H223.066L231.55 120.319V147.101L224.238 154.413H252.49V129.584H269.755V154.431H290.686V88.802H269.746Z" fill="#363C60"/>
<path d="M345.282 90.6625V104.365V108.561L341.087 104.365H328.77V152.571H311.561V104.365H299.421L295.225 108.561V104.365V90.6625H345.282ZM347.143 88.802H293.374V113.054L300.193 106.235H309.7V154.441H330.631V106.235H340.315L347.134 113.054V88.802H347.143Z" fill="#363C60"/>
<path d="M373.199 89.7043C380.4 89.7043 386.149 91.3881 390.456 94.7556C394.753 98.1231 397.051 102.849 397.349 108.933H378.641C378.586 107.063 378.009 105.658 376.93 104.719C375.841 103.779 374.455 103.314 372.762 103.314C371.478 103.314 370.418 103.695 369.599 104.458C368.781 105.221 368.371 106.3 368.371 107.705C368.371 108.877 368.827 109.891 369.73 110.737C370.641 111.584 371.767 112.319 373.106 112.933C374.455 113.547 376.446 114.328 379.079 115.258C383.004 116.607 386.232 117.938 388.781 119.258C391.33 120.579 393.525 122.421 395.367 124.794C397.209 127.166 398.13 130.161 398.13 133.798C398.13 137.482 397.209 140.794 395.367 143.724C393.525 146.654 390.856 148.962 387.376 150.664C383.897 152.366 379.786 153.213 375.041 153.213C367.841 153.213 361.925 151.501 357.301 148.078C352.678 144.654 350.185 139.752 349.841 133.37H368.195C368.371 135.538 369.013 137.119 370.13 138.115C371.237 139.11 372.678 139.603 374.437 139.603C376.018 139.603 377.32 139.212 378.344 138.422C379.367 137.631 379.879 136.533 379.879 135.129C379.879 133.315 379.032 131.91 377.33 130.915C375.627 129.919 372.883 128.803 369.078 127.575C365.041 126.226 361.776 124.924 359.283 123.668C356.79 122.412 354.632 120.57 352.79 118.133C350.948 115.705 350.027 112.533 350.027 108.607C350.027 104.626 351.022 101.221 353.013 98.3743C355.004 95.537 357.757 93.3881 361.264 91.9183C364.771 90.4299 368.753 89.7043 373.199 89.7043ZM373.199 87.8438C368.53 87.8438 364.269 88.6345 360.539 90.1787C356.706 91.7788 353.664 94.1695 351.478 97.2859C349.273 100.43 348.157 104.235 348.157 108.579C348.157 112.896 349.217 116.486 351.301 119.231C353.311 121.873 355.711 123.919 358.446 125.296C360.994 126.589 364.381 127.938 368.483 129.305C372.158 130.496 374.809 131.556 376.39 132.487C377.516 133.147 378.018 133.947 378.018 135.091C378.018 135.919 377.767 136.477 377.209 136.915C376.511 137.454 375.609 137.715 374.437 137.715C373.144 137.715 372.139 137.38 371.376 136.701C370.632 136.04 370.195 134.859 370.055 133.194L369.916 131.482H347.887L347.999 133.445C348.38 140.375 351.143 145.789 356.213 149.548C361.143 153.194 367.478 155.045 375.06 155.045C380.065 155.045 384.493 154.124 388.214 152.31C392 150.469 394.939 147.901 396.967 144.692C398.995 141.482 400.019 137.808 400.019 133.78C400.019 129.742 398.958 126.328 396.856 123.64C394.856 121.063 392.437 119.035 389.656 117.593C387.051 116.244 383.702 114.868 379.702 113.491C377.162 112.589 375.199 111.826 373.897 111.23C372.744 110.7 371.767 110.077 371.013 109.37C370.483 108.868 370.241 108.356 370.241 107.695C370.241 106.402 370.716 105.956 370.874 105.807C371.348 105.37 371.953 105.165 372.771 105.165C374.018 105.165 374.985 105.481 375.73 106.114C376.409 106.7 376.753 107.64 376.799 108.979L376.855 110.784H399.321L399.228 108.83C398.912 102.207 396.353 96.9696 391.628 93.2765C386.986 89.6671 380.8 87.8438 373.199 87.8438Z" fill="#363C60"/>
<path d="M132.85 90.6625V152.571H115.64L92.7184 117.975V147.12L98.179 152.58H75.518V90.6625H92.7277L115.649 125.696V95.9091L110.403 90.6625L132.85 90.6625ZM105.9 88.802L113.779 96.6812V119.454L94.2813 89.6392L93.7324 88.7927H73.6575V154.422H102.681L94.5976 146.338V124.142L114.105 153.585L114.654 154.422H134.719V88.802H105.9Z" fill="#363C60"/>
<path d="M228.126 11.1071V59.8432H247.355V73.0155H210.917V18.0189L204.005 11.1071H228.126ZM229.987 9.24663H210.907H199.502L209.037 18.7817V74.8668H249.197V57.9827H229.968V9.24663H229.987Z" fill="#363C60"/>
<path d="M182.814 11.1071L205.288 73.0155H187.111L183.772 62.913H161.818L158.478 73.0155H140.385L147.027 54.7826L141.994 49.7499H148.869L162.953 11.1164H182.814M166.218 49.7406H179.474L172.804 29.7215L166.218 49.7406ZM184.116 9.24663H161.669L161.222 10.4746L147.585 47.8894H137.519L144.887 55.257L137.733 74.8668H159.836L160.255 73.5923L163.167 64.7735H182.432L185.344 73.5923L185.762 74.8668H207.94L207.037 72.3737L184.562 10.4746L184.116 9.24663ZM168.785 47.8801L172.813 35.6379L176.897 47.8801H168.785Z" fill="#363C60"/>
<path d="M105.277 4.0186L109.351 10.3629C113.649 10.8467 117.649 12.1118 121.342 14.177C126.17 16.8747 129.994 20.6329 132.803 25.461C134.98 29.2006 136.301 33.3216 136.794 37.8147L143.129 41.8893L136.785 45.9638C136.282 50.4197 134.961 54.5035 132.803 58.2152C129.994 63.0432 126.161 66.8201 121.296 69.5457C117.584 71.6202 113.603 72.9039 109.351 73.397L105.277 79.7413L101.193 73.3877C96.9697 72.8853 93.0161 71.6109 89.3416 69.5457C84.4857 66.8201 80.6344 63.0432 77.7972 58.2152C75.6111 54.5035 74.2808 50.4197 73.7785 45.9638L67.4248 41.8893L73.7692 37.8147C74.2622 33.3216 75.6018 29.2006 77.7972 25.4703C80.6344 20.6422 84.4857 16.884 89.3416 14.1863C93.0254 12.149 96.979 10.8839 101.202 10.3908L105.277 4.0186ZM105.314 57.6385C109.705 57.6385 113.175 56.2059 115.724 53.3314C118.273 50.4662 119.547 46.6335 119.547 41.8241C119.547 36.9031 118.273 33.0332 115.724 30.1867C113.175 27.3494 109.705 25.9261 105.314 25.9261C100.867 25.9261 97.379 27.3494 94.8673 30.1867C92.3463 33.0239 91.0905 36.9031 91.0905 41.8241C91.0905 46.6801 92.3463 50.5313 94.8673 53.3686C97.3883 56.2152 100.867 57.6385 105.314 57.6385ZM105.277 0.57666L100.105 8.64196C95.9836 9.22802 92.058 10.5397 88.4486 12.549C83.3136 15.3956 79.1925 19.4236 76.1971 24.5214C74.0296 28.2052 72.6342 32.3076 72.0296 36.717L63.9829 41.8799L72.0389 47.0522C72.6436 51.4244 74.0389 55.4896 76.1971 59.1548C79.1925 64.2526 83.3136 68.2899 88.4393 71.1643C92.058 73.1923 95.9743 74.5133 100.105 75.1086L103.723 80.7367L105.286 83.1739L110.458 75.1179C114.626 74.5319 118.58 73.2016 122.217 71.155C127.352 68.2806 131.454 64.234 134.422 59.1362C136.552 55.471 137.929 51.4058 138.533 47.0429L144.143 43.4335L146.58 41.8706L144.143 40.3078L138.543 36.7077C137.947 32.2983 136.561 28.2052 134.422 24.5121C131.454 19.4143 127.361 15.3863 122.263 12.5397C118.626 10.5118 114.663 9.20012 110.458 8.61406L106.858 3.00462L105.277 0.57666ZM105.314 55.7779C101.388 55.7779 98.4209 54.5872 96.2534 52.15C94.058 49.6755 92.9417 46.2056 92.9417 41.8334C92.9417 37.4054 94.058 33.9077 96.2534 31.4332C98.4209 28.9866 101.379 27.8052 105.314 27.8052C109.184 27.8052 112.133 28.9959 114.338 31.4425C116.561 33.917 117.686 37.4147 117.686 41.8334C117.686 46.1405 116.561 49.6011 114.338 52.1034C112.133 54.5686 109.184 55.7779 105.314 55.7779Z" fill="#363C60"/>
<path d="M292.221 11.1071L314.696 73.0155H296.519L293.179 62.913H271.225L267.885 73.0155H249.792L256.434 54.7826L251.401 49.7499H258.276L272.36 11.1164H292.221M275.625 49.7406H288.881L282.211 29.7215L275.625 49.7406ZM293.523 9.24663H271.076L256.992 47.8894H246.927L254.294 55.257L247.141 74.8668H269.243L269.662 73.5923L272.574 64.7735H291.839L294.751 73.5923L295.17 74.8668H317.347L293.97 10.4653L293.523 9.24663ZM278.202 47.8801L282.23 35.6379L286.314 47.8801H278.202Z" fill="#363C60"/>
</svg>
