<?xml version="1.0" encoding="utf-8"?>
<!-- Generator: Adobe Illustrator 24.0.0, SVG Export Plug-In . SVG Version: 6.00 Build 0)  -->
<svg version="1.1" id="Layer_1" xmlns="http://www.w3.org/2000/svg" xmlns:xlink="http://www.w3.org/1999/xlink"
	  xml:space="preserve" width="195" height="6" viewBox ="0 0 195 6">
<style type="text/css">
	.st0{fill:#FFFFFF;}
</style>
<g>
	<rect x="0" y="3" class="st0" width="3" height="3"/>
	<rect x="3" y="0" class="st0" width="3" height="3"/>
	<rect x="6" y="3" class="st0" width="3" height="3"/>
	<rect x="9" y="0" class="st0" width="3" height="3"/>
	<rect x="12" y="3" class="st0" width="3" height="3"/>
	<rect x="15" y="0" class="st0" width="3" height="3"/>
	<rect x="18" y="3" class="st0" width="3" height="3"/>
	<rect x="21" y="0" class="st0" width="3" height="3"/>
	<rect x="24" y="3" class="st0" width="3" height="3"/>
	<rect x="27" y="0" class="st0" width="3" height="3"/>
	<rect x="30" y="3" class="st0" width="3" height="3"/>
	<rect x="33" y="0" class="st0" width="3" height="3"/>
	<rect x="36" y="3" class="st0" width="3" height="3"/>
	<rect x="39" y="0" class="st0" width="3" height="3"/>
	<rect x="42" y="3" class="st0" width="3" height="3"/>
	<rect x="45" y="0" class="st0" width="3" height="3"/>
	<rect x="48" y="3" class="st0" width="3" height="3"/>
	<rect x="51" y="0" class="st0" width="3" height="3"/>
	<rect x="54" y="3" class="st0" width="3" height="3"/>
	<rect x="57" y="0" class="st0" width="3" height="3"/>
	<rect x="60" y="3" class="st0" width="3" height="3"/>
	<rect x="63" y="0" class="st0" width="3" height="3"/>
	<rect x="66" y="3" class="st0" width="3" height="3"/>
	<rect x="69" y="0" class="st0" width="3" height="3"/>
	<rect x="72" y="3" class="st0" width="3" height="3"/>
	<rect x="75" y="0" class="st0" width="3" height="3"/>
	<rect x="78" y="3" class="st0" width="3" height="3"/>
	<rect x="81" y="0" class="st0" width="3" height="3"/>
	<rect x="84" y="3" class="st0" width="3" height="3"/>
	<rect x="87" y="0" class="st0" width="3" height="3"/>
	<rect x="90" y="3" class="st0" width="3" height="3"/>
	<rect x="93" y="0" class="st0" width="3" height="3"/>
	<rect x="96" y="3" class="st0" width="3" height="3"/>
	<rect x="99" y="0" class="st0" width="3" height="3"/>
	<rect x="102" y="3" class="st0" width="3" height="3"/>
	<rect x="105" y="0" class="st0" width="3" height="3"/>
	<rect x="108" y="3" class="st0" width="3" height="3"/>
	<rect x="111" y="0" class="st0" width="3" height="3"/>
	<rect x="114" y="3" class="st0" width="3" height="3"/>
	<rect x="117" y="0" class="st0" width="3" height="3"/>
	<rect x="120" y="3" class="st0" width="3" height="3"/>
	<rect x="123" y="0" class="st0" width="3" height="3"/>
	<rect x="126" y="3" class="st0" width="3" height="3"/>
	<rect x="129" y="0" class="st0" width="3" height="3"/>
	<rect x="132" y="3" class="st0" width="3" height="3"/>
	<rect x="135" y="0" class="st0" width="3" height="3"/>
	<rect x="138" y="3" class="st0" width="3" height="3"/>
	<rect x="141" y="0" class="st0" width="3" height="3"/>
	<rect x="144" y="3" class="st0" width="3" height="3"/>
	<rect x="147" y="0" class="st0" width="3" height="3"/>
	<rect x="150" y="3" class="st0" width="3" height="3"/>
	<rect x="153" y="0" class="st0" width="3" height="3"/>
	<rect x="156" y="3" class="st0" width="3" height="3"/>
	<rect x="159" y="0" class="st0" width="3" height="3"/>
	<rect x="162" y="3" class="st0" width="3" height="3"/>
	<rect x="165" y="0" class="st0" width="3" height="3"/>
	<rect x="168" y="3" class="st0" width="3" height="3"/>
	<rect x="171" y="0" class="st0" width="3" height="3"/>
	<rect x="174" y="3" class="st0" width="3" height="3"/>
	<rect x="177" y="0" class="st0" width="3" height="3"/>
	<rect x="180" y="3" class="st0" width="3" height="3"/>
	<rect x="183" y="0" class="st0" width="3" height="3"/>
	<rect x="186" y="3" class="st0" width="3" height="3"/>
	<rect x="189" y="0" class="st0" width="3" height="3"/>
	<rect x="192" y="3" class="st0" width="3" height="3"/>
</g>
</svg>
