<svg width="34" height="34" viewBox="0 0 34 34" fill="none" xmlns="http://www.w3.org/2000/svg">
<path id="Vector" d="M17 0C16.6656 0 16.3311 0.0111475 16.0023 0.0334426V1.71115C16.3311 1.68885 16.6656 1.6777 17 1.6777C25.4498 1.6777 32.3279 8.55574 32.3279 17.0056C32.3279 20.701 31.0125 24.0954 28.8275 26.7485V26.7374V24.5525H26.6426V22.3564H24.4521V20.1715H26.637V17.9866H28.822V15.8016V13.6056H26.637H24.4521V15.7905H22.2672V13.6056H20.0823V11.4207H17.8974V9.23574H15.7125V7.05082H13.5275V4.85475H11.3426V2.66984H9.15771H6.97279H4.78787H2.60295V4.85475V7.03967V9.22459V11.4095H4.78787V13.5944H6.97279V15.7793H9.15771V17.9643H11.3426V20.1492H13.5275V22.3341H15.7125V24.519H13.5275V26.7039V28.8889H15.7125H17.8974V26.7039H20.0823V24.519H22.2672V26.7039H24.4521V28.8889H26.6203C23.9895 31.018 20.6397 32.3 16.9944 32.3C8.54459 32.3 1.66656 25.422 1.66656 16.9721C1.66656 16.6377 1.68328 16.3033 1.7 15.9744H0.0334426C0.0167213 16.3033 0 16.6377 0 16.9721C0 26.3472 7.62492 33.9721 17 33.9721C26.3751 33.9721 34 26.3472 34 16.9721C34 7.59705 26.3751 0 17 0ZM20.0823 20.1715H17.8974V17.9866H15.7125V15.8016H13.5275V13.6056H11.3426V11.4207H9.15771V9.23574H11.3426V11.4207H13.5275V13.6056H15.7125V15.7905H17.8974V17.9754H20.0823V20.1715Z" fill="white"/>
</svg>
